<?xml version="1.0" encoding="utf-8"?>
<!-- Generator: Adobe Illustrator 25.0.0, SVG Export Plug-In . SVG Version: 6.00 Build 0)  -->
<svg version="1.1" id="_x32_b8e3008-3352-469a-8231-8c916447ef06"
	 xmlns="http://www.w3.org/2000/svg" xmlns:xlink="http://www.w3.org/1999/xlink" x="0px" y="0px" viewBox="0 0 1037.9 772.3"
	 style="enable-background:new 0 0 1037.9 772.3;" xml:space="preserve">
<style type="text/css">
	.st0{opacity:0.1;fill:#18AB29;enable-background:new    ;}
	.st1{fill:#B5EAAD;}
	.st2{fill:#2DBA4B;}
	.st3{fill:url(#SVGID_1_);}
	.st4{fill:none;stroke:#535461;stroke-width:2;stroke-miterlimit:10;}
	.st5{fill:#18AB29;}
	.st6{fill:url(#SVGID_2_);}
	.st7{fill:#DDE1EC;}
	.st8{opacity:0.3;fill:#535461;enable-background:new    ;}
	.st9{opacity:0.1;}
	.st10{fill:#535461;}
	.st11{fill:url(#SVGID_3_);}
	.st12{fill:#F8BDC5;}
	.st13{fill:#5E52AD;}
	.st14{opacity:3.000000e-02;}
	.st15{fill:#5D3E53;}
	.st16{fill:#85555C;}
	.st17{fill:#ED677B;}
	.st18{opacity:5.000000e-02;enable-background:new    ;}
	.st19{opacity:0.1;enable-background:new    ;}
	.st20{fill:none;stroke:#535461;stroke-miterlimit:10;}
	.st21{fill:#A8A8A8;}
	.st22{opacity:0.2;enable-background:new    ;}
</style>
<path class="st0" d="M354.7,208.1c-4.3,1.8-8.7,4.1-11.1,8.1c-2.5,4.3-2.2,9.5-1.7,14.5c4.1,42.7,14.8,88.1-3.7,126.7
	c-9,18.8-24,33.8-36,50.8s-21,38.3-15.4,58.3c6.8,24.5,32.1,38.1,49.2,56.9c11.2,12.3,19,27.3,29.4,40.2s24.7,24.4,41.3,25.1
	c23.9,1.1,43.4-19.6,66.9-24.3c24-4.9,48.2,7.6,67.7,22.5s37.2,33,59.9,42.3c25.1,10.3,53.3,8.7,79.7,14.9c24,5.6,46.2,17.6,70,24
	s51.8,6,70.3-10.3c24.1-21.4,22.2-59.4,37.6-87.7c14.3-26.3,42.3-41.9,61.1-65.1c33.9-41.8,32.8-105.6,4-151.1S843,281,789.7,273.8
	c-24-3.2-48.8-2.8-71.9-10.1c-61.8-19.6-98.6-90-161.8-104.6c-40.1-9.3-79.2,6.8-113.4,26.6C413,202.9,385.6,195.3,354.7,208.1z"/>
<path class="st1" d="M1037.9,28.2L977.8,37c0,0-159.9,25.4-344.4,12c-110.4-8-233.5,35-286,79C292,174.5,325,238.9,276,276.5
	S241,511,291,566s86,115,194,118s256.2,29,319.6,53S909,754,939,737s62.9-38.5,98.9-52.5"/>
<path class="st2" d="M1037.9,28.2"/>
<linearGradient id="SVGID_1_" gradientUnits="userSpaceOnUse" x1="261.5673" y1="384.4" x2="1037.9" y2="384.4">
	<stop  offset="0" style="stop-color:#2B9D70"/>
	<stop  offset="0.99" style="stop-color:#3CD392"/>
</linearGradient>
<path class="st3" d="M1037.9,38.5c0,0-127.9,68.8-298.6,45.8S437,130.5,364.4,175.5s-21.8,99.2-81.8,152.5s25.2,180.5,47.2,215.5
	s63.8,112,132.8,121.9s266.1,20.9,302.5,34.9s60.6,30,103.5,30s89.1-60.2,169.1-63.3"/>
<path class="st4" d="M415,346c0,0-22.8,21.5-47.2,22.1c-10.3,0.2-20.2,3.7-28.3,10.1c-3.8,3-7.4,6.4-10.6,10.1"/>
<path class="st5" d="M313.4,388.7c3.3-1.7,15.8-0.6,15.8-0.6s-6.5,10.8-9.8,12.5c-3.2,1.9-7.3,0.8-9.1-2.3c-1.9-3.2-0.8-7.3,2.3-9.1
	C312.9,389,313.2,388.9,313.4,388.7L313.4,388.7z"/>
<path class="st5" d="M326.6,369.7c3.7,0.4,13.6,8.1,13.6,8.1s-11.3,5.5-15,5.1c-3.6-0.6-6.2-4-5.6-7.6
	C320.2,371.9,323.2,369.5,326.6,369.7z"/>
<path class="st5" d="M357.9,354.3c3,2.2,7.6,13.9,7.6,13.9s-12.6-1-15.5-3.1c-2.9-2.3-3.3-6.5-1-9.4
	C351.2,353,355.1,352.4,357.9,354.3z"/>
<path class="st5" d="M384.2,348c3.3,1.6,9.9,12.4,9.9,12.4s-12.5,1.2-15.8-0.5c-3.4-1.5-4.9-5.4-3.4-8.8s5.4-4.9,8.8-3.4
	C383.8,347.8,384,347.9,384.2,348L384.2,348z"/>
<path class="st5" d="M347.2,390c1.1-3.5-2.1-15.7-2.1-15.7s-9.5,8.2-10.6,11.7c-1.3,3.5,0.5,7.3,4,8.6c3.5,1.3,7.3-0.5,8.6-4
	C347.1,390.4,347.1,390.2,347.2,390z"/>
<path class="st5" d="M377.9,382.2c0-3.7-6.7-14.3-6.7-14.3s-6.6,10.7-6.6,14.4c0,3.7,3,6.7,6.7,6.7
	C374.9,388.9,377.9,385.9,377.9,382.2L377.9,382.2L377.9,382.2z"/>
<path class="st5" d="M406.6,370.6c0.6-3.6-4.2-15.3-4.2-15.3s-8.4,9.4-9,13.1c-0.4,3.7,2.2,7,5.8,7.4
	C402.7,376.2,405.9,374,406.6,370.6L406.6,370.6z"/>
<path class="st4" d="M444.6,289c0,0-27.4-15.1-35.6-38.2c-3.4-9.7-9.8-18.1-18.3-23.8c-4.1-2.7-8.4-5-12.8-6.9"/>
<path class="st5" d="M372.6,205.6c2.6,2.6,5.4,14.9,5.4,14.9s-12.3-2.9-14.9-5.5c-2.5-2.7-2.2-7,0.5-9.4
	C366.2,203.2,370.1,203.2,372.6,205.6z"/>
<path class="st5" d="M394.8,212.2c0.8,3.6-3.6,15.4-3.6,15.4s-8.7-9.1-9.5-12.7c-0.9-3.6,1.2-7.2,4.8-8.1c3.6-0.9,7.2,1.2,8.1,4.8
	C394.8,211.8,394.8,212,394.8,212.2L394.8,212.2z"/>
<path class="st5" d="M419.1,237.3c-1.2,3.5-10.9,11.5-10.9,11.5s-3-12.2-1.8-15.7s4.9-5.4,8.4-4.2S420.3,233.8,419.1,237.3
	L419.1,237.3L419.1,237.3z"/>
<path class="st5" d="M433.1,260.4c-0.6,3.6-8.8,13.2-8.8,13.2s-5-11.6-4.4-15.2c0.4-3.7,3.7-6.3,7.3-6c3.7,0.4,6.3,3.7,6,7.3
	C433.2,260,433.2,260.2,433.1,260.4L433.1,260.4z"/>
<path class="st5" d="M381.8,238.1c3.7,0,14.3-6.8,14.3-6.8s-10.8-6.5-14.4-6.5c-3.7,0-6.6,3.1-6.6,6.8
	C375.1,235.2,378.2,238.1,381.8,238.1L381.8,238.1L381.8,238.1z"/>
<path class="st5" d="M398.6,264.9c3.5-1.1,11.6-10.8,11.6-10.8s-12.2-3-15.7-1.9c-3.5,1-5.6,4.7-4.6,8.3s4.7,5.6,8.3,4.6
	C398.3,265,398.5,264.9,398.6,264.9L398.6,264.9z"/>
<path class="st5" d="M418.5,288.7c3.6-0.5,13.2-8.7,13.2-8.7s-11.5-5-15.2-4.5c-3.7,0.4-6.3,3.7-6,7.3s3.7,6.3,7.3,6
	C418.2,288.7,418.4,288.7,418.5,288.7L418.5,288.7z"/>
<linearGradient id="SVGID_2_" gradientUnits="userSpaceOnUse" x1="633.4" y1="960.8" x2="633.4" y2="477.4" gradientTransform="matrix(1 0 0 1 0 -306)">
	<stop  offset="0" style="stop-color:#808080;stop-opacity:0.25"/>
	<stop  offset="0.54" style="stop-color:#808080;stop-opacity:0.12"/>
	<stop  offset="1" style="stop-color:#808080;stop-opacity:0.1"/>
</linearGradient>
<circle class="st6" cx="633.4" cy="413.1" r="241.7"/>
<circle class="st5" cx="633.4" cy="413.1" r="237.7"/>
<circle class="st7" cx="633.4" cy="413.1" r="188.9"/>
<rect x="628.1" y="257.6" class="st8" width="10.7" height="166.9"/>
<g class="st9">
	<rect x="644.8" y="409.1" width="150.9" height="13.4"/>
	<rect x="576" y="336.2" transform="matrix(0.4639 -0.8859 0.8859 0.4639 -32.9813 725.1567)" width="13.4" height="107.2"/>
	<circle cx="633.4" cy="415.8" r="20"/>
</g>
<rect x="644.8" y="406.4" class="st10" width="150.9" height="13.4"/>
<rect x="576" y="333.6" transform="matrix(0.4639 -0.8859 0.8859 0.4639 -30.6477 723.8319)" class="st10" width="13.4" height="107.2"/>
<circle class="st10" cx="633.4" cy="413.1" r="20"/>
<g class="st9">
	<path d="M459.2,435.8c0-104.3,84.6-188.9,188.9-188.9c59.4-0.1,115.3,27.9,151,75.3c-32.2-58.4-94.2-98-165.7-98
		c-104.3,0-188.9,84.6-188.9,188.9c-0.1,41,13.3,80.9,38,113.6C467.1,498.8,459.1,467.6,459.2,435.8z"/>
</g>
<linearGradient id="SVGID_3_" gradientUnits="userSpaceOnUse" x1="811.655" y1="881.6636" x2="811.655" y2="603.4235" gradientTransform="matrix(1 0 0 1 -81.08 -369.86)">
	<stop  offset="0" style="stop-color:#808080;stop-opacity:0.25"/>
	<stop  offset="0.54" style="stop-color:#808080;stop-opacity:0.12"/>
	<stop  offset="1" style="stop-color:#808080;stop-opacity:0.1"/>
</linearGradient>
<path class="st11" d="M808,274.1c-2.2-2.2-21.1,12-21.1,12s-6.7,1.2-5.1,5.8s-7,30.4-7,30.4l-3.5-4.9c0.3-5.8-1.2-9.9-2.8-12.4
	c-0.1-0.2-0.3-0.4-0.4-0.6l0.6-0.2c-0.2-3.2-5.3-8-8-10.3c0-0.3,0-0.7,0-1c0.2-3.8,1.7-7.7,0-11.1c-1.9-3.9-7.4-5.8-7.9-10.1
	c-0.3-2.6,1.4-4.9,2.2-7.3c1.8-5.9-2-11.9-5.6-16.9c-1.2-1.9-2.7-3.6-4.4-5.1c-1.6-1.2-3.4-2.1-5.3-2.8c-5.3-2.1-10.7-3.2-16.1-4.7
	c-5.2-1.4-10-2-15.4-0.3c-1.3,0.3-2.4,1-3.3,1.9c-1.3,1.4-1.4,3.4-2.3,5.1c-1.3,2.7-4.2,4.3-6.8,6.1c-2.5,1.7-5.1,4.1-5.1,7.1
	c0,4.3,4.9,6.9,6.5,10.9c1.5,3.7,0,7.8-0.8,11.7c-0.4,1.3-0.4,2.6-0.1,3.9c0.3,1,0.8,1.8,1.5,2.6c1,1.3,2.1,2.6,3.2,3.8l-0.5,0.2
	c-9-0.9-14.7,10.5-14.7,10.5c0.4,0.1,0.8,0.2,1.2,0.3l-0.4,0.5c-2.7,3.5-4.9,7.4-6.6,11.5l-7.3,9.8c0,0-1.6-24.6,2.2-30.1
	s-3.5-8.9-3.5-8.9s-16-17.8-18.2-16.3s5.4,20.9,12.2,24c0,0,0.7,6.1-0.7,10.1c-0.8,2.5-5.1,29.2-5.1,29.2s-3.8,22.5,13.8,11.3
	c11.4-7.2,18.8-19.6,22.6-27.4c0.3-0.5,0.5-1.1,0.7-1.6c0.2,0.8,0.3,1.7,0.4,2.5l0.7,25.7c0.2,6.4-1.2,12.7-4,18.4l-7.8,15.9
	l0.9,0.3l-0.5,0.8c-5.2,7.6-14,24.7,4.1,33.4l24,3.1l-1.3,6.1c0,0-9.9,18.8-12.8,31.7c-1.8,7.9-4.6,15.6-8.3,22.8l0.7,0.4
	c-0.2,0.2-0.3,0.4-0.5,0.5c-1.5,1.6-2.4,3.7-2.8,5.8l-3.3,4.6c0,0-1.3,19.1,1.3,23.7c1.4,2.5,6.1,4.1,10,5.1
	c5.9,1.4,10.6-4.7,7.5-9.7v-0.1h-0.1c-0.7-3.1-2.7-12.7-2-16.4c0.2-1,0.4-2.1,0.4-3.1c0.2-1.4,0.6-2.7,1.2-4
	c0.1-0.2,0.2-0.4,0.3-0.6l0.3,0.1c1.1,0.5,2.1,0.9,3.1,1.3c-1.6,1.4-2.7,4.4-1.3,10.4c0,0,0.1,15.1,1.3,17.5s14.1,5.5,16.3,3.1
	c2.2-2.5-1.4-10.9-1.4-10.9l-0.1,0.1c-0.7-4.9-1.7-13.7,0.6-17.2c0.9-1.4,1.8-2.8,2.6-4.2l0.5-0.8l0,0c4.2,2.1,8.6,3.7,11,2.6
	c0,0,10.6-24.6,9.9-27.7s16.3-37.8,16.3-37.8s14.4-16-3.2-27.1c-5.6-3.5-9.7-5.9-12.6-7.5l-2.5-13c-1.3-6.8-1-13.8,0.7-20.5
	l2.7-10.2l0,0l0.2-0.9c0,0,6.7-13.8,6.4-20.3c0-0.5,0-1,0.2-1.5c0.1,0.3,0.2,0.6,0.2,1c1.8,6.7,4.1,13.3,7,19.6
	c5.1,11.5,12.7,10.6,16.8,9c1.8-0.7,3.1-2.3,3.5-4.2c1.5-7.2,5.6-27.3,5.9-32.8c0.2-4.3,0.8-8.7,1.6-12.9
	C801.3,287,810.2,276.3,808,274.1z"/>
<path class="st12" d="M729.6,471.2c0,0-1.4,2.8-3.3,6.2c-0.8,1.3-1.6,2.8-2.5,4.2c-3.1,4.9,0,20.4,0,20.4l-6.7,0.9l-6.7-3.3
	l-1.2-11.3V480l7.6-8.5l3.3-3.7L729.6,471.2z"/>
<g class="st9">
	<path d="M729.6,471.2c0,0-1.4,2.8-3.3,6.2c-2.9-1.6-5.8-3.3-8.5-5.2l-0.6-0.4l-0.3-0.2l3.3-3.7L729.6,471.2z"/>
</g>
<path class="st13" d="M762.3,414.2c0,0-16.2,34.5-15.5,37.5c0.6,3.1-9.5,27.4-9.5,27.4c-2.3,1.1-6.5-0.5-10.5-2.5
	c-3-1.6-5.9-3.4-8.7-5.3l-0.6-0.4l-0.4-0.3l26.5-73.5l-23.5-17.2l-1.7-1.3l-10.5-7.7l32,5.8c0,0,1.1-0.1,7,3.2
	c2.8,1.6,6.8,4,12.2,7.5C776,398.3,762.3,414.2,762.3,414.2z"/>
<g class="st14">
	<path d="M762.3,414.2c0,0-16.2,34.5-15.5,37.5c0.6,3.1-9.5,27.4-9.5,27.4c-2.3,1.1-6.5-0.5-10.5-2.5c-3-1.6-5.9-3.4-8.7-5.3
		l-0.6-0.4l-0.4-0.3l26.5-73.5l-23.5-17.2l-1.7-1.3l-10.5-7.7l32,5.8c0,0,1.1-0.1,7,3.2c2.8,1.6,6.8,4,12.2,7.5
		C776,398.3,762.3,414.2,762.3,414.2z"/>
</g>
<path class="st15" d="M713.2,477.3c0,0-7.9-1.2-5.2,11.6c0,0,0.1,15,1.2,17.4c1.1,2.3,13.4,5.5,15.5,3.1s-1.4-10.8-1.4-10.8
	s-9,6.6-11.4-0.5S713.2,477.3,713.2,477.3z"/>
<path class="st12" d="M707.7,474.9c-0.9,0.8-1.6,1.8-2.1,2.9c-0.6,1.2-1,2.6-1.2,3.9c-0.1,1-0.2,2.1-0.4,3.1
	c-0.8,4.3,2.2,17.2,2.2,17.2l-11.6,1.8l-4.3-4.6l-0.9-10.1c1.1-3.4,1.8-7,1.8-10.7c0-2.6,1.3-5,2.7-6.7c0.9-1.1,1.9-2.2,3.1-3.1
	C697,468.8,710.1,472.7,707.7,474.9z"/>
<g class="st9">
	<path d="M707.7,474.9c-0.9,0.8-1.6,1.8-2.1,2.9c-4.7-2.1-9.7-4.8-11.5-5.8l-0.1-0.1c0.9-1.1,1.9-2.2,3.1-3.1
		C697,468.8,710.1,472.7,707.7,474.9z"/>
</g>
<path class="st13" d="M745.2,405c0,0-7.6,14.3-12.5,26.2c-3.2,7.8-9.8,26.4-14,38.3l-0.6,1.7c-1.8,5.2-3.1,8.8-3.1,8.8
	c-0.8,0-1.6-0.1-2.4-0.4c-0.7-0.2-1.5-0.5-2.4-0.8l-1-0.4c-1-0.4-2-0.8-3-1.3c-4.8-2.2-10-5-11.9-6l-0.7-0.4
	c3.6-7.2,6.2-14.8,8-22.6c2.7-12.8,12.2-31.4,12.2-31.4l1.2-6.1l-22.9-3.1c-17.2-8.6-8.9-25.6-3.9-33.1c0.8-1.3,1.7-2.6,2.7-3.8
	l18.3,4c0,0,2.9,0.9,9.3,3.8l2.9,1.3c3.6,1.6,8,3.8,13.4,6.5C752.8,395.6,745.2,405,745.2,405z"/>
<path class="st15" d="M706,501.1c1.8,3.1,0.8,7-2.3,8.9c-1.5,0.9-3.2,1.1-4.9,0.7c-3.7-0.9-8.2-2.5-9.5-5
	c-2.4-4.6-1.2-23.5-1.2-23.5l3.2-4.7c0,0-1.7,20.9,2.3,22.7C697.6,502,706,501,706,501.1L706,501.1z"/>
<path class="st16" d="M709.3,235.9c-1.2,0.3-2.3,1-3.2,1.9c-1.2,1.4-1.3,3.4-2.1,5.1c-1.3,2.7-4,4.3-6.4,6s-4.9,4.1-4.9,7.1
	c0,4.2,4.7,6.9,6.2,10.8c1.4,3.7,0,7.8-0.8,11.6c-0.3,1.3-0.4,2.6-0.1,3.8c0.3,0.9,0.8,1.8,1.4,2.6c2.9,4,6.6,7.6,8.6,12.1
	c1.5,3.5,1.9,7.3,2.3,11c0.6,5.4,1.1,10.9,0.1,16.3c-0.1,0.3-0.1,0.7,0,1c0.2,0.3,0.5,0.5,0.8,0.7c8,3.9,17.5,0.5,21.4-7.4
	c0.1-0.2,0.2-0.4,0.3-0.6c1.3-3,1.8-6.7,4.5-8.6c0.3-0.3,0.7-0.4,1.1-0.5c0.6,0,1.2,0.2,1.7,0.6c3.4,1.9,7.6,1.9,11.4,1.1
	c2.3-0.5,4.7-1.3,6.2-3.1c3-3.6,1.3-8.9,1.5-13.6c0.2-3.7,1.6-7.7,0-11c-1.8-3.9-7.1-5.8-7.5-10c-0.3-2.5,1.4-4.8,2.1-7.2
	c1.7-5.8-1.9-11.8-5.3-16.8c-1.2-1.9-2.6-3.6-4.2-5c-1.5-1.2-3.2-2.1-5-2.8c-5-2.1-10.2-3.2-15.4-4.6
	C718.9,234.8,714.4,234.2,709.3,235.9z"/>
<path class="st12" d="M734.8,323h-17.7v-28.7c0.5-2.8,0.8-5.5,0.9-8.3c0-0.9,0-1.9,0-2.9c-0.2-3.4-0.9-6.8-2.7-8.9
	c-4.9-5.5,15.9-4.6,15.9-4.6c0.6,2.5,1.5,5,2.5,7.4c1.5,3.7,3.5,7.3,5.9,10.5c2.1,2.9,4.9,5.2,8.1,6.9
	C759.8,300.4,734.8,323,734.8,323z"/>
<g class="st9">
	<path d="M733.6,277c-3.7,4.8-9.7,7.1-15.6,6.1c-0.2-3.4-0.9-6.8-2.7-8.9c-4.9-5.5,15.9-4.6,15.9-4.6
		C731.8,272.2,732.6,274.6,733.6,277z"/>
</g>
<circle class="st12" cx="720.8" cy="266.3" r="16.2"/>
<path class="st12" d="M787.9,294c-0.8,4.2-1.3,8.5-1.5,12.8c-0.2,5.5-4.2,25.4-5.6,32.5c-0.4,1.9-1.6,3.4-3.4,4.1
	c-4,1.6-11.2,2.5-16-8.9c-2.7-6.3-4.9-12.8-6.6-19.4c-0.6-2.2-1-4.5-1.3-6.8l10.7-5.8c1,0.9,1.9,2,2.5,3.2c1.5,2.5,3,6.6,2.7,12.3
	l3.3,4.9c0,0,8.2-25.6,6.7-30.2c-1.6-4.6,4.9-5.8,4.9-5.8s18-14,20.1-11.9C806.4,277.3,797.9,287.9,787.9,294z"/>
<path class="st12" d="M700.4,306.2c-0.8,2.4-1.8,4.7-2.9,7c-3.6,7.7-10.6,20-21.5,27.1c-16.8,11-13.1-11.3-13.1-11.3
	s4.1-26.5,4.9-29c1.2-4,0.6-10.1,0.6-10.1c-6.4-3.1-13.7-22.3-11.6-23.8s17.4,16.2,17.4,16.2s7,3.3,3.3,8.8s-2.1,29.9-2.1,29.9
	l7.1-9.7c1.6-4.1,3.7-7.9,6.3-11.4c1.3-1.8,2.3-2.9,2.3-2.9L700.4,306.2z"/>
<g class="st9">
	<path d="M766.6,305.8c-2.2,0.8-10.9,4.3-11.9,9.3c-0.6-2.2-1-4.5-1.3-6.8l10.7-5.8C765.1,303.5,765.9,304.6,766.6,305.8z"/>
</g>
<g class="st9">
	<path d="M700.4,306.2c-0.8,2.4-1.8,4.7-2.9,7c-0.4-3-2.1-10.7-8.9-13.2c1.3-1.8,2.3-2.9,2.3-2.9L700.4,306.2z"/>
</g>
<g class="st9">
	<path d="M734.8,323h-17.7v-28.7c0.5-2.8,0.8-5.5,0.9-8.3c3.6,3.5,2.7,9,2.7,9l9.5,21.4l4.6-18.9l-1.5-2.4l6.3-7.5
		c2.1,2.9,4.9,5.2,8.1,6.9C759.8,300.4,734.8,323,734.8,323z"/>
</g>
<g class="st9">
	<path d="M747.3,381.5c0,0-13.9-1.1-25.9-1.6l-1.2-0.1c-1.7-0.1-3.3-0.1-4.9-0.2c-11.7-0.3-24.9-4.4-27.1-5.1
		c0.8-1.3,1.8-2.6,2.7-3.8l18.3,4c0,0,2.9,0.9,9.3,3.8l-10.5-7.8l32,5.8c0,0,1.1-0.1,7,3.2L747.3,381.5z"/>
</g>
<path class="st17" d="M734.8,298.6l-1.5-2.4l6.8-8.1c0,0,14,6.8,17.6,5.3c0,0,8.8,7.3,9.1,11.6c0,0-12.8,4.3-12.5,10.7
	s-6.1,20.1-6.1,20.1l-2.7,11c-1.6,6.6-1.9,13.6-0.7,20.3l2.4,13.6c0,0-19.2-1.5-32-1.8s-27.4-5.2-27.4-5.2l7.5-15.7
	c2.7-5.7,4-11.9,3.9-18.2l-0.7-25.5c0,0-0.6-12.8-10.7-14.9c0,0,5.5-11.3,14-10.4c0,0,12.4-5.2,16.1-1.7s2.8,9,2.8,9l9.5,21.4
	L734.8,298.6z"/>
<g class="st9">
	<path d="M709.1,263c2.5,0,4.4-2.6,6.8-2.5c1.3,0.1,2.4,0.9,3.4,1.6c4,2.7,8.4,4.8,13,6c1.8,0.5,3.7,0.8,5.5,0.4s3.5-1.9,3.7-3.7
		c0.1-0.8-0.1-1.6-0.3-2.4c-2.1-7.2-6.7-13.3-13-17.2c-2.5-1.6-5.6-2.7-8.4-1.8c-2.5,0.9-4.2,3.3-6,5.2c-1.4,1.5-3,2.7-4.7,3.8
		c-1.3,0.8-3.3,1.3-4.1,2.8C703.6,258,705.9,262.9,709.1,263z"/>
</g>
<path class="st16" d="M709.1,262.4c2.5,0,4.4-2.6,6.8-2.5c1.3,0.1,2.4,0.9,3.4,1.6c4,2.7,8.4,4.8,13,6c1.8,0.5,3.7,0.8,5.5,0.4
	s3.5-1.9,3.7-3.7c0.1-0.8-0.1-1.6-0.3-2.4c-2.1-7.2-6.7-13.3-13-17.2c-2.5-1.6-5.6-2.7-8.4-1.8c-2.5,0.9-4.2,3.3-6,5.2
	c-1.4,1.5-3,2.7-4.7,3.8c-1.3,0.8-3.3,1.3-4.1,2.8C703.6,257.4,705.9,262.3,709.1,262.4z"/>
<path class="st18" d="M701.7,332c0,0,14.9,5.5,24.7,1.2l4.9,0.3c0,0,8.1,5.7,16.7,3.1"/>
<path class="st18" d="M772.5,322.9c0,0-2.4,5.8-1.2,7.6"/>
<path class="st18" d="M675.2,321c0,0,1.2,5.8,0,7.6"/>
<path class="st5" d="M928.1,453.1c0,0-27.9,27.9-12.2,69.4s-27,110.4-27,110.4s0.5-0.1,1.3-0.2c57.4-10.1,85.9-75.7,54-124.5
	C932.3,490,922.6,468.7,928.1,453.1z"/>
<path class="st19" d="M928.1,453.5c0,0-27.9,27.9-12.2,69.4s-27,110.4-27,110.4s0.5-0.1,1.3-0.2c57.4-10.1,85.9-75.7,54-124.5
	C932.3,490.5,922.6,469.2,928.1,453.5z"/>
<path class="st20" d="M928.1,453.1c0,0-15.8,34.2,0,62.2c15.8,27.9,2.7,106.3-39.2,117.6"/>
<path class="st5" d="M977.8,566c0,0-31.9-5.1-34.8,23.5c-2.9,28.6-61.3,32.5-61.3,32.5l1.1,0.7c48.2,31.6,94.3,20.2,87.3-21.9
	C967.6,585.3,967.8,569.6,977.8,566z"/>
<path class="st20" d="M977.8,566c0,0-24.7,5.4-22.7,27.9s-36.7,49.5-73.4,28.1"/>
<path class="st21" d="M949.8,623.1c0,0-25.1-5-31.8-11.7s-36.8-18.4-40.2-10c-3.3,8.4-45.2,36.8-16.7,41.8c28.4,5,66.9,6.7,75.3,3.3
	C944.8,643.2,949.8,623.1,949.8,623.1z"/>
<path class="st22" d="M861.1,640.1c28.5,5,66.9,6.7,75.3,3.3c6.4-2.6,10.8-14.8,12.6-20.5l0.8,0.2c0,0-5,20.1-13.4,23.4
	c-8.4,3.3-46.9,1.7-75.3-3.3c-8.2-1.4-10.6-4.9-9.7-9.2C852.1,636.8,855,639,861.1,640.1z"/>
</svg>
