<?xml version="1.0" encoding="utf-8"?>
<!-- Generator: Adobe Illustrator 25.0.0, SVG Export Plug-In . SVG Version: 6.00 Build 0)  -->
<svg version="1.1" id="Layer_1" xmlns="http://www.w3.org/2000/svg" xmlns:xlink="http://www.w3.org/1999/xlink" x="0px" y="0px"
	 viewBox="0 0 796.3 716.6" style="enable-background:new 0 0 796.3 716.6;" xml:space="preserve">
<style type="text/css">
	.st0{fill:url(#SVGID_1_);}
	.st1{fill:url(#SVGID_2_);}
	.st2{fill:url(#SVGID_3_);}
	.st3{fill:url(#SVGID_4_);}
	.st4{opacity:0.2;fill:#18AB29;enable-background:new    ;}
	.st5{fill:none;stroke:#535461;stroke-width:2;stroke-miterlimit:10;}
	.st6{fill:#8ED16F;}
	.st7{opacity:0.3;enable-background:new    ;}
	.st8{opacity:0.3;}
	.st9{fill:#FFFFFF;}
	.st10{fill:url(#SVGID_5_);}
	.st11{fill:#18AB29;}
	.st12{fill:#D6D6E3;}
	.st13{fill:url(#SVGID_6_);}
	.st14{fill:#ACA9C9;}
	.st15{fill:#618FD8;}
	.st16{opacity:0.1;}
	.st17{fill:#F7C4A7;}
	.st18{opacity:0.1;enable-background:new    ;}
	.st19{fill:#E14B5A;}
	.st20{fill:#281C1C;}
	.st21{opacity:0.4;fill:#FFFFFF;enable-background:new    ;}
	.st22{opacity:5.000000e-02;enable-background:new    ;}
</style>
<g id="Layer_2_1_">
	<g id="Layer_1-2">
		
			<linearGradient id="SVGID_1_" gradientUnits="userSpaceOnUse" x1="48.6294" y1="838.8071" x2="199.4894" y2="851.6071" gradientTransform="matrix(1 0 0 1 0 -499.69)">
			<stop  offset="0" style="stop-color:#D1F2E3"/>
			<stop  offset="0.12" style="stop-color:#C3EBD6"/>
			<stop  offset="0.36" style="stop-color:#AEE1C3"/>
			<stop  offset="0.51" style="stop-color:#A6DDBC"/>
			<stop  offset="0.83" style="stop-color:#AFE1C4"/>
			<stop  offset="1" style="stop-color:#B6E4CA"/>
		</linearGradient>
		<path class="st0" d="M0,52.7c90.3-123.1,372.9,4.4,432.8,31.8c63.1,28.8,135.7,73.8,199.8,97.8c101.4,38,110.3,34.1,140.1,111.7
			c28.4,74,37.3,184.5-8.4,281.6c-21.4,45.4-86.1,80.8-173.5,114.6c-200.8,77.5-444-42.3-590.5-19.5"/>
		
			<linearGradient id="SVGID_2_" gradientUnits="userSpaceOnUse" x1="13.2" y1="523.36" x2="13.2" y2="523.36" gradientTransform="matrix(1 0 0 1 0 -499.69)">
			<stop  offset="0" style="stop-color:#D1F2E3"/>
			<stop  offset="0.12" style="stop-color:#C3EBD6"/>
			<stop  offset="0.36" style="stop-color:#AEE1C3"/>
			<stop  offset="0.51" style="stop-color:#A6DDBC"/>
			<stop  offset="0.83" style="stop-color:#AFE1C4"/>
			<stop  offset="1" style="stop-color:#B6E4CA"/>
		</linearGradient>
		<path class="st1" d="M13.2,23.7"/>
		
			<linearGradient id="SVGID_3_" gradientUnits="userSpaceOnUse" x1="2.4" y1="527.16" x2="2.4" y2="527.16" gradientTransform="matrix(1 0 0 1 0 -499.69)">
			<stop  offset="0" style="stop-color:#D1F2E3"/>
			<stop  offset="0.12" style="stop-color:#C3EBD6"/>
			<stop  offset="0.36" style="stop-color:#AEE1C3"/>
			<stop  offset="0.51" style="stop-color:#A6DDBC"/>
			<stop  offset="0.83" style="stop-color:#AFE1C4"/>
			<stop  offset="1" style="stop-color:#B6E4CA"/>
		</linearGradient>
		<path class="st2" d="M2.4,27.5"/>
		
			<linearGradient id="SVGID_4_" gradientUnits="userSpaceOnUse" x1="455.4837" y1="888.1027" x2="-35.7289" y2="820.3605" gradientTransform="matrix(1 0 0 1 0 -499.69)">
			<stop  offset="0" style="stop-color:#2B9D70"/>
			<stop  offset="0.5714" style="stop-color:#35BC84"/>
			<stop  offset="0.99" style="stop-color:#3CD392"/>
		</linearGradient>
		<path class="st3" d="M0,132.6c0,0,74.7-132.4,244.1-70.9S450,178.4,551.6,201.4s93.9,43.9,145.2,171.2
			c25.3,62.8,72.7,109.7-13.3,177.9c-67.5,53.5-73.8,119.9-171,119.9S85.7,575.9,0.2,629.7L0,132.6z"/>
		<path class="st4" d="M78.2,401.1c-7.8,2.3-15,8-17,15.9c-2.2,9.1,2.9,18.2,3.6,27.5c2.4,30.5-41,52-34.8,81.9
			c2.5,11.9,12.4,20.7,22.2,27.9c15.7,11.5,33,21.8,52.3,24.6c29.2,4.4,59.7-8.5,88.1-0.4c22.9,6.6,40.4,25.8,63.2,32.9
			c17.3,5.4,36,3.3,54,1.1c9.7-1.2,19.9-2.5,27.7-8.4c14.6-10.8,15.5-32.2,25.2-47.6c15-23.6,48-28.3,75.7-23.7s54.5,15.9,82.6,15
			c6-0.2,12.1-1,17.4-4c6.4-3.6,10.6-9.9,14.4-16.1c23.7-39.1,36.7-83.7,37.8-129.4c0.2-7.9-0.1-16-3.8-23c-4.7-8.8-14-14-23.3-17.5
			c-22.3-8.5-46.9-9.9-68.8-19.4c-21.1-9.2-38.2-25.4-56.5-39.3c-36.6-27.6-79-46.5-124-55.2c-10.5-2-21.5-3.5-32-1.1
			c-12.1,2.7-22.5,10.2-31.8,18.3c-24.9,21.5-44.8,48.1-67.8,71.7c-15.8,16.3-33.1,31.1-51.5,44.4c-8.5,6.1-17.5,13.4-27,17.9
			C95.4,399.4,87.3,398.4,78.2,401.1z"/>
		<path class="st5" d="M189.1,209.6c0,0-23.4,31.1-6.7,67.4s-29.2,94.6-29.2,94.6"/>
		<path class="st6" d="M199.6,198c-1.9,8-10.8,12.8-10.8,12.8s-5.9-8.2-4-16.2s6.7-13.7,10.8-12.8S201.5,190,199.6,198z"/>
		<ellipse transform="matrix(0.2267 -0.974 0.974 0.2267 -42.675 338.666)" class="st6" cx="191.9" cy="196.2" rx="4.7" ry="1.8"/>
		<ellipse transform="matrix(0.2267 -0.974 0.974 0.2267 -42.675 338.666)" class="st7" cx="191.9" cy="196.2" rx="4.7" ry="1.8"/>
		<path class="st6" d="M195.5,233.6c-7.7,2.8-16.6-2.1-16.6-2.1s3.7-9.4,11.4-12.2s15.2-1.8,16.6,2.1S203.3,230.8,195.5,233.6z"/>
		
			<ellipse transform="matrix(0.9404 -0.3401 0.3401 0.9404 -65.2919 79.0101)" class="st6" cx="192.8" cy="225.8" rx="4.7" ry="1.8"/>
		
			<ellipse transform="matrix(0.9404 -0.3401 0.3401 0.9404 -65.2919 79.0101)" class="st7" cx="192.8" cy="225.8" rx="4.7" ry="1.8"/>
		<path class="st6" d="M193.7,261.9c-7.7,2.8-16.6-2.1-16.6-2.1s3.7-9.4,11.4-12.2s15.2-1.8,16.6,2.1S201.5,259.2,193.7,261.9z"/>
		
			<ellipse transform="matrix(0.9409 -0.3387 0.3387 0.9409 -74.9033 79.7624)" class="st6" cx="191.1" cy="254.5" rx="4.7" ry="1.8"/>
		
			<ellipse transform="matrix(0.9409 -0.3387 0.3387 0.9409 -74.9033 79.7624)" class="st7" cx="191.1" cy="254.5" rx="4.7" ry="1.8"/>
		<path class="st6" d="M202.8,295.2c-7.7,2.8-16.6-2.1-16.6-2.1s3.7-9.4,11.4-12.2s15.2-1.8,16.6,2.1S210.5,292.4,202.8,295.2z"/>
		
			<ellipse transform="matrix(0.9409 -0.3387 0.3387 0.9409 -85.6552 84.7808)" class="st6" cx="200.1" cy="287.8" rx="4.7" ry="1.8"/>
		
			<ellipse transform="matrix(0.9409 -0.3387 0.3387 0.9409 -85.6552 84.7808)" class="st7" cx="200.1" cy="287.8" rx="4.7" ry="1.8"/>
		<path class="st6" d="M196.9,325.6c-7.7,2.8-16.6-2.1-16.6-2.1s3.7-9.4,11.4-12.2s15.2-1.8,16.6,2.1S204.6,322.8,196.9,325.6z"/>
		
			<ellipse transform="matrix(0.9404 -0.3401 0.3401 0.9404 -96.4721 84.954)" class="st6" cx="194.1" cy="317.7" rx="4.7" ry="1.8"/>
		
			<ellipse transform="matrix(0.9404 -0.3401 0.3401 0.9404 -96.4721 84.954)" class="st7" cx="194.1" cy="317.7" rx="4.7" ry="1.8"/>
		<path class="st6" d="M160.6,241.6c5.7,5.9,15.8,5.5,15.8,5.5s0.8-10.1-4.9-16s-12.8-8.4-15.8-5.5S154.9,235.7,160.6,241.6z"/>
		
			<ellipse transform="matrix(0.7195 -0.6945 0.6945 0.7195 -117.3807 181.7509)" class="st6" cx="166.3" cy="236.2" rx="1.8" ry="4.7"/>
		
			<ellipse transform="matrix(0.7195 -0.6945 0.6945 0.7195 -117.3807 181.7509)" class="st7" cx="166.3" cy="236.2" rx="1.8" ry="4.7"/>
		<path class="st6" d="M157.3,335.6c5.7,5.9,15.8,5.5,15.8,5.5s0.8-10.1-4.9-16s-12.8-8.4-15.8-5.5S151.6,329.7,157.3,335.6z"/>
		
			<ellipse transform="matrix(0.7195 -0.6945 0.6945 0.7195 -183.5961 205.844)" class="st6" cx="163" cy="330.2" rx="1.8" ry="4.7"/>
		
			<ellipse transform="matrix(0.7195 -0.6945 0.6945 0.7195 -183.5961 205.844)" class="st7" cx="163" cy="330.2" rx="1.8" ry="4.7"/>
		<path class="st6" d="M164.9,274.9c7.4,3.7,16.7-0.1,16.7-0.1s-2.6-9.8-9.9-13.4s-14.8-3.6-16.7,0.1S157.6,271.2,164.9,274.9z"/>
		
			<ellipse transform="matrix(0.4465 -0.8948 0.8948 0.4465 -146.3537 298.925)" class="st6" cx="168.4" cy="267.8" rx="1.8" ry="4.7"/>
		
			<ellipse transform="matrix(0.4465 -0.8948 0.8948 0.4465 -146.3537 298.925)" class="st7" cx="168.4" cy="267.8" rx="1.8" ry="4.7"/>
		<path class="st6" d="M168,307.9c7.4,3.7,16.7-0.1,16.7-0.1s-2.6-9.8-9.9-13.4s-14.8-3.6-16.7,0.1S160.7,304.3,168,307.9z"/>
		
			<ellipse transform="matrix(0.4465 -0.8948 0.8948 0.4465 -174.2363 320.0051)" class="st6" cx="171.5" cy="300.8" rx="1.8" ry="4.7"/>
		
			<ellipse transform="matrix(0.4465 -0.8948 0.8948 0.4465 -174.2363 320.0051)" class="st7" cx="171.5" cy="300.8" rx="1.8" ry="4.7"/>
		<path class="st6" d="M76.2,276.5c0,0,42.8,42.8,18.6,106.3s41.4,169.1,41.4,169.1l-2-0.3C46.3,536.1,2.6,435.5,51.5,360.9
			C69.7,333.1,84.7,300.6,76.2,276.5z"/>
		<path class="st6" d="M0,449.6c0,0,48.8-7.8,53.3,36s93.9,49.8,93.9,49.8s-0.6,0.4-1.7,1.1C71.6,585,1,567.4,11.7,503
			C15.6,479.1,15.3,455.1,0,449.6z"/>
		<g class="st8">
			<path class="st9" d="M0,449.6c0,0,48.8-7.8,53.3,36s93.9,49.8,93.9,49.8s-0.6,0.4-1.7,1.1C71.6,585,1,567.4,11.7,503
				C15.6,479.1,15.3,455.1,0,449.6z"/>
		</g>
		<ellipse class="st6" cx="63.9" cy="414.1" rx="13.4" ry="35"/>
		<ellipse class="st7" cx="63.9" cy="414.1" rx="13.4" ry="35"/>
		
			<ellipse transform="matrix(0.7071 -0.7071 0.7071 0.7071 -358.4921 188.5944)" class="st6" cx="48.4" cy="527" rx="9.1" ry="20.1"/>
		
			<ellipse transform="matrix(0.7071 -0.7071 0.7071 0.7071 -358.4921 188.5944)" class="st7" cx="48.4" cy="527" rx="9.1" ry="20.1"/>
		
			<linearGradient id="SVGID_5_" gradientUnits="userSpaceOnUse" x1="-261.05" y1="751.4" x2="-261.05" y2="966.7" gradientTransform="matrix(1 0 0 -1 541 1309.26)">
			<stop  offset="0" style="stop-color:#808080;stop-opacity:0.25"/>
			<stop  offset="0.54" style="stop-color:#808080;stop-opacity:0.12"/>
			<stop  offset="1" style="stop-color:#808080;stop-opacity:0.1"/>
		</linearGradient>
		<path class="st10" d="M438.9,342.6H121c-8,0-14.5,6.5-14.5,14.5l0,0v186.3c0,8,6.5,14.5,14.5,14.5h317.9c8,0,14.5-6.5,14.5-14.5
			l0,0V357.1C453.4,349.1,446.9,342.6,438.9,342.6z"/>
		<path class="st11" d="M125.6,345.2h308.6c8.3,0,15,6.7,15,15v180.1c0,8.3-6.7,15-15,15l0,0H125.6c-8.3,0-15-6.7-15-15l0,0V360.2
			C110.6,351.9,117.3,345.2,125.6,345.2z"/>
		<rect x="110.6" y="381.9" class="st11" width="338.7" height="38.5"/>
		<rect x="110.6" y="381.9" class="st7" width="338.7" height="38.5"/>
		<rect x="142.7" y="449.1" class="st12" width="274.5" height="18.7"/>
		<circle class="st11" cx="165.5" cy="514.5" r="26.9"/>
		<circle class="st7" cx="165.5" cy="514.5" r="26.9"/>
		
			<linearGradient id="SVGID_6_" gradientUnits="userSpaceOnUse" x1="2829.3611" y1="724.0988" x2="2829.3611" y2="1058.8687" gradientTransform="matrix(-1 0 0 -1 3325 1309.26)">
			<stop  offset="0" style="stop-color:#808080;stop-opacity:0.25"/>
			<stop  offset="0.54" style="stop-color:#808080;stop-opacity:0.12"/>
			<stop  offset="1" style="stop-color:#808080;stop-opacity:0.1"/>
		</linearGradient>
		<path class="st13" d="M430,293.3c0.4,1.4,1.4,2.5,2.6,3.3c5.6,3.7,17.7,2.9,19.1,2.9c0.3,0,0.7,0.6,1.2,1.5
			c2.1,4.4,5.5,17.4,5.7,20.3c0.3,3.5,3.6,20,8.9,26.1c0.2,0.2,0.3,0.4,0.5,0.5c5.3,5.3,11.4-0.5,11.4-0.5l0.9-3.1
			c-0.2,1.2-0.5,2.6-0.8,4.2c-0.1,0.8-0.3,1.6-0.4,2.5c-0.8,4.9-1.2,9.8-1.3,14.8c0,1.8,0.1,3.6,0.2,5.4c0,0.5,0.1,1,0.2,1.5
			c0.3,2.2,0.4,4.4,0.4,6.6c0,13-3.4,29.3-3.4,29.3h0.1c-0.1,0.2-0.1,0.4-0.1,0.6l0.2-0.1l-0.3,1.8c-1.1,8.2-1.8,18.4-2.1,24.3
			c-0.2,3.1,0,6.2,0.4,9.3l5.9,41.7v19.4c0,2.9,0.3,5.9,1.1,8.7c1.9,7.3,0.3,32.9-0.6,45.1c-0.2,3.3-0.4,5.6-0.5,6.3v0.2l0.2-0.1
			v0.2c0.3-0.1,0.5-0.2,0.8-0.2c-2.3,3.6-6.6,9.7-9.9,10.7c-1.9,0.6-3.6,1.7-4.9,3.3l-0.1,0.1l-0.1,0.2c-0.4,0.6-0.6,1.2-0.7,1.9
			c0-0.1-0.1-0.2-0.1-0.4c-0.2,1.4,0.6,2.6,3.1,3.2c1.5,0.3,3,0.4,4.5,0.4c8.9,0,24.6-2.7,26.3-5.7v-10.1l0.3,0.1v0.1l1.1,0.4l3-10
			c3.6-2.6,0.6-50,0-60.8c-0.5-9.9,5.6-49.3,6.7-56.3l-0.1-0.2l0.2-1c0.2,0.2,0.4,0.3,0.6,0.5c0.4,0.4,0.7,0.9,0.9,1.4
			c0.5,0.9,0.9,1.8,1.3,2.7c6,14.9,8.7,57.7,8.7,61.5V548c0,4,0.5,7.9,1.6,11.7c0.6,2,1,4,1.3,6.1l0.3,2.4l0.3,2.4
			c0,0.2,0,0.4,0.1,0.5v0.2c0.1,0.9,0.2,1.7,0.2,2.6c0-0.1,0-0.1,0.1-0.2v0.4c0-0.2,0.1-0.3,0.2-0.4c0.2-0.3,0.5-0.5,0.8-0.7v5.1
			l-0.1-0.1v0.9c6.2,4.7,16.2,6.1,23.9,6c5,0,9.1-0.6,10.5-1.3c2-1,0.9-3.3-0.9-5.1c-1.4-1.4-3.3-2.4-4.4-2.3
			c-2,0.2-8.6-7.3-12.1-11.5l0.4-0.2l0.6-0.2v-67c0,0,0.9-26.4,3.6-52.6c1.3-13.2-0.3-26.5-4.6-39l-0.1-0.2l0.8,0.1
			c0.4,0,0.9,0.1,1.3,0.2c0-0.2,0-0.4-0.1-0.6h0.1c0,0-1-11.3-1.1-25.6c0-16.2,1.4-35.8,7-47c3.2-6.4,4.3-11.5,4.2-15.5
			c0.1-3.5-0.9-7-2.9-9.9c-0.8-1.2-2-2.1-3.3-2.6l-0.1-0.1h-0.1c-1-0.4-2-0.6-3.1-0.6h-12.2c-1.4,0-2.8-0.4-4-1.1l-4.8-2.7
			c-1.6-3.5-1.8-7.8-1.5-11.8c0-0.3,0.1-0.6,0.1-1l0.3-0.4c0.3-0.3,0.5-0.6,0.8-0.9c0,0.2,0,0.5-0.1,0.7c0,0.3-0.1,0.5-0.3,0.7
			c2.6-0.3,5.5-0.9,7.1-2.9c0.1-0.1,0.1-0.2,0.2-0.2c0.5-0.8,0.9-1.6,1.2-2.4c0.2-0.6,0.5-1.1,0.9-1.6c0.4-0.5,0.9-1,1.4-1.4
			l0.1-0.1c1.5-1.8,1.6-4.4,1.6-6.8c0-5.8-0.1-12.1-4-16.5c-3.2-3.6-8.3-5-13.2-5.1s-9.7,0.7-14.6,0.7c-3.3,0-7.3-0.1-9.1,2.7
			c-0.9,1.3-1,3.1-2,4.4c-0.6,0.7-1.4,1.4-1.5,2.3c0,0.4,0.1,0.8,0.3,1.2l0,0c1.3,2.3,3.7,3.9,6.3,4.2c-0.4,0.5-0.8,1.1-1.2,1.7
			c-1.6,2.5-2.4,5.5-2.4,8.5v1c0.3,4.1,2.1,7.9,5.1,10.7c0,0.3-0.1,0.7-0.2,1l0.1,0.1c0.3,0.3,0.7,0.6,1.1,0.9l0.1,0.1v2.5l-0.1-0.1
			l-5.9-4.9l-9.5-8.8c0,0-23.8-17.3-25-9.1c-0.1,1.5,0.3,2.9,1.1,4.1c4.4,6.7,19.4,12.3,19.4,12.3c5.6,6.1,10.7,12.7,15,19.7
			l-0.6,0.3c-5.3,2.5-13.1,1.4-13.1,1.4c-9,1.4-9.8,11.3-9.8,15.2v0.8l-11.9-28v-0.1c-0.8-1.9-2.5-3.2-4.5-3.5
			C448.3,290.2,428.4,287.4,430,293.3z M480,565.5c0.2,0,0.3-0.1,0.5-0.1l-0.1,0.1H480z"/>
		<path class="st14" d="M539.6,559.8c0,0,11.3,14.2,13.9,13.9s8.7,5.5,5.2,7.3s-23.5,2.9-33.3-4.6V565L539.6,559.8z"/>
		<path class="st14" d="M482.5,560.7c0,0-6.7,11.9-11.3,13.3s-8.7,6.7-2.6,8.1s27.8-1.7,29.9-5.2v-15.4L482.5,560.7z"/>
		<path class="st15" d="M474.1,443.9l5.8,41.1v19.1c0,2.9,0.3,5.8,1,8.6c1.9,7.2,0.3,32.5-0.5,44.4c-0.3,3.9-0.5,6.4-0.5,6.4
			c3.8-1.7,19.7,3.8,19.7,3.8l1.6-5.5l1.3-4.4c3.5-2.6,0.6-49.3,0-60c-0.4-7.3,2.9-31.1,5-45.4c0.6-4,1.1-7.3,1.4-9.2
			c0.2-1.2,0.3-1.9,0.3-1.9c0.6,0.5,1.2,1.2,1.6,1.9c0.5,0.9,0.9,1.8,1.3,2.7c5.8,14.7,8.5,56.9,8.5,60.6v39.6
			c0,3.9,0.5,7.8,1.6,11.6c0.7,2.7,1.2,5.5,1.6,8.3c0.4,3.1,0.6,5.7,0.6,5.7c0.3-1.7,18.3-9.6,18.3-9.6v-66.1c0,0,0.9-26.1,3.5-51.9
			c1.1-11.7,0-23.6-3.3-34.9c-0.6-2.1-1.3-4.2-2.1-6.2c-1.1-2.8-1.8-4.4-1.8-4.4h-59.2c-1,0.2-1.8,2.2-2.6,5.2
			c-0.5,2-0.9,4.5-1.3,7.3c-1.1,8.1-1.7,18.1-2,23.9C473.6,437.7,473.6,440.8,474.1,443.9z"/>
		<g class="st16">
			<path d="M541.5,562v-66.1c0,0,0.9-26.1,3.5-51.9c1.5-15.5-1-31.2-7.3-45.5h1.2c6.3,14.3,8.8,30,7.3,45.5
				c-2.6,25.8-3.5,51.9-3.5,51.9V562c0,0-18,7.8-18.3,9.6c0-0.4,0-0.7-0.1-1.1C528.2,567.8,541.5,562,541.5,562z"/>
			<path d="M481.6,563.4c-0.5,0-1.1,0.1-1.6,0.3v-0.3H481.6z"/>
			<path d="M501.5,557.6c3.5-2.6,0.6-49.3,0-60s6.7-56.5,6.7-56.5c0.4,0.3,0.7,0.6,1,1c-1.1,6.8-7,45.7-6.5,55.5
				c0.6,10.7,3.5,57.4,0,60l-2.9,9.9l-1.1-0.4L501.5,557.6z"/>
		</g>
		<path class="st17" d="M486,326.8l-6.1,21.5c0,0-6.4,6.1-11.6,0s-8.4-22.3-8.7-25.8s-4.9-21.5-6.7-21.5s-19.1,1.2-21.2-6.1
			c-1.6-5.8,17.8-3,25.6-1.7c2,0.3,3.6,1.6,4.3,3.5l11.9,28.5C473.6,325.1,479.9,317.8,486,326.8z"/>
		<path class="st17" d="M525.1,276.9c0,0-7.5,21.2,2,28.7s-34.2,9.6-34.2,9.6l5.9-5.7c0,0,4.2-16.7,1.3-30.6L525.1,276.9z"/>
		<path class="st18" d="M515.8,305.6c0,0,7.7-1.9,7.7-3.9l6.8,3.9h17.1c0,0,12.5,7,2,27.8s-5.8,72.1-5.8,72.1s-37.1-6.7-67.8,3.5
			c0,0,4.6-22.9,2.9-35.9s2.9-31.3,2.9-31.3l2.6-11c0,0-0.1-10.3-10.9-5.1c0,0-1.6-14.9,9.4-16.7c0,0,12.7,1.7,16.5-4.6
			C499.3,304.4,507.7,309.4,515.8,305.6z"/>
		<path class="st19" d="M515.8,305c0,0,7.7-1.9,7.7-3.9l5,2.9c1.2,0.7,2.5,1,3.9,1h12c2.5,0,4.9,1.2,6.4,3.3
			c2.7,3.9,5.2,11.5-1.3,24.6c-10.4,20.9-5.8,72.1-5.8,72.1s-37.1-6.7-67.8,3.5c0,0,4.6-22.9,2.9-35.9s2.9-31.3,2.9-31.3l2.6-11
			c0,0-0.1-10.3-10.9-5.1c0,0-1.6-14.5,9-16.6c0.3-0.1,0.6-0.1,0.9-0.1c2.2,0.2,12.7,1,16.1-4.7C499.3,303.9,507.7,308.8,515.8,305z
			"/>
		<path class="st18" d="M545.1,331.4c0,0-9.3,5.8-24.3,0c0,0-16.5-6.1-21.7-18s26.4,2,26.4,2s6.7,0,8.7-1.4S550.3,325,545.1,331.4z"
			/>
		<path class="st17" d="M545.1,330.2c0,0-9.3,5.8-24.3,0c0,0-16.5-6.1-21.7-18s-17.4-24.9-17.4-24.9s-21.2-8.1-20-16.2
			s24.3,9,24.3,9l9.3,8.7l30.1,25.5c0,0,6.7,0,8.7-1.4S550.3,323.9,545.1,330.2z"/>
		<path class="st18" d="M499.9,279.8l24.9-2c-1.3,3.8-2.2,7.8-2.6,11.8c-6,6.3-16,6.5-22.3,0.6C500.5,286.7,500.5,283.2,499.9,279.8
			z"/>
		
			<ellipse transform="matrix(0.9732 -0.2298 0.2298 0.9732 -50.1006 124.8288)" class="st17" cx="511" cy="277.6" rx="15.9" ry="15.9"/>
		<path class="st18" d="M519.8,281.1c-0.9-1.5,1-3.5,0.3-5.2s-2.9-1.8-3.6-3.3c-0.6-1.2,0-2.6-0.2-3.9c-0.3-1.7-2.1-2.7-3.8-2.8
			s-3.3,0.6-5,1.1c-2.6,1-5.4,1.5-8.2,1.3c-2.8-0.2-5.4-1.8-6.8-4.3c-0.2-0.4-0.3-0.8-0.3-1.2c0-0.9,0.9-1.5,1.4-2.3
			c0.9-1.3,1.1-3,1.9-4.3c1.8-2.7,5.6-2.6,8.8-2.6c4.7,0,9.4-0.9,14.2-0.7s9.7,1.5,12.8,5.1c3.8,4.3,3.9,10.5,3.9,16.2
			c0,2.3-0.1,4.9-1.6,6.7c-0.4,0.5-1,1-1.4,1.5c-0.9,1.2-1.2,2.8-2,4c-1.5,2.2-4.5,2.7-7.1,3.1c0.8-0.1,0.1-5.3,0-5.8
			C522.7,281.3,522.1,281.3,519.8,281.1z"/>
		<path class="st20" d="M519.8,280.5c-0.9-1.5,1-3.5,0.3-5.2s-2.9-1.8-3.6-3.3c-0.6-1.2,0-2.6-0.2-3.9c-0.3-1.7-2.1-2.7-3.8-2.8
			s-3.3,0.6-5,1.1c-2.6,1-5.4,1.5-8.2,1.3c-2.8-0.2-5.4-1.8-6.8-4.3c-0.2-0.4-0.3-0.8-0.3-1.2c0-0.9,0.9-1.5,1.4-2.3
			c0.9-1.3,1.1-3,1.9-4.3c1.8-2.7,5.6-2.6,8.8-2.6c4.7,0,9.4-0.9,14.2-0.7s9.7,1.5,12.8,5.1c3.8,4.3,3.9,10.5,3.9,16.2
			c0,2.3-0.1,4.9-1.6,6.7c-0.4,0.5-1,1-1.4,1.5c-0.9,1.2-1.2,2.8-2,4c-1.5,2.2-4.5,2.7-7.1,3.1c0.8-0.1,0.1-5.3,0-5.8
			C522.7,280.7,522.1,280.7,519.8,280.5z"/>
		<path class="st18" d="M545,332.1c0,0-7.8-20.3-13.9-20.9s11.6,0,11.6,0l5.8,10.4L545,332.1z"/>
		<path class="st19" d="M545.5,332.1c0,0-7.8-20.3-13.9-20.9s11.6,0,11.6,0l5.8,10.4L545.5,332.1z"/>
		<path class="st15" d="M523.6,565.7c0.4,3.1,0.6,5.7,0.6,5.7c0.3-1.7,18.3-9.6,18.3-9.6v-4.7c-0.5,0-0.9,0-1.4,0.1
			c-3.5,0.5-6.7,2.2-9.7,4C528.9,562.8,526.3,564.3,523.6,565.7z"/>
		<path class="st7" d="M523.6,565.7c0.4,3.1,0.6,5.7,0.6,5.7c0.3-1.7,18.3-9.6,18.3-9.6v-4.7c-0.5,0-0.9,0-1.4,0.1
			c-3.5,0.5-6.7,2.2-9.7,4C528.9,562.8,526.3,564.3,523.6,565.7z"/>
		<path class="st15" d="M479.9,563.6c3.8-1.7,19.7,3.8,19.7,3.8l1.6-5.5c-2.8-0.6-5.5-1.3-8.3-2.1c-1.3-0.4-2.5-0.8-3.7-1.4
			c-0.8-0.4-1.6-0.8-2.5-1.2c-2.1-0.7-4.2-0.4-6.4-0.1C480.1,561.1,479.9,563.6,479.9,563.6z"/>
		<path class="st7" d="M479.9,563.6c3.8-1.7,19.7,3.8,19.7,3.8l1.6-5.5c-2.8-0.6-5.5-1.3-8.3-2.1c-1.3-0.4-2.5-0.8-3.7-1.4
			c-0.8-0.4-1.6-0.8-2.5-1.2c-2.1-0.7-4.2-0.4-6.4-0.1C480.1,561.1,479.9,563.6,479.9,563.6z"/>
		<path class="st21" d="M558.6,580.1c0.5-0.2,0.9-0.6,1-1.2c0.2,0.8-0.2,1.7-1,2c-3.5,1.7-23.5,2.9-33.3-4.6v-0.9
			C535.1,583,555.1,581.8,558.6,580.1z"/>
		<path class="st21" d="M468.4,581.3c6.1,1.4,27.8-1.7,29.9-5.2v0.9c-2,3.5-23.8,6.7-29.9,5.2c-2.5-0.6-3.3-1.8-3-3.1
			C465.6,580,466.5,580.8,468.4,581.3z"/>
		<path class="st18" d="M503.8,370.1c0,0-6.4-2-8.1,0s-16.6,6.8-16.6,6.8"/>
		<rect x="431.6" y="289.8" class="st6" width="31" height="0.7"/>
		<rect x="431.6" y="290.5" class="st6" width="31" height="0.7"/>
		<rect x="431.6" y="290.5" class="st18" width="31" height="0.7"/>
		<rect x="431.6" y="291.1" class="st6" width="31" height="0.7"/>
		<rect x="431.6" y="291.8" class="st6" width="31" height="0.7"/>
		<rect x="431.6" y="291.8" class="st18" width="31" height="0.7"/>
		<rect x="431.6" y="292.4" class="st6" width="31" height="0.7"/>
		<rect x="431.6" y="293.1" class="st6" width="31" height="0.7"/>
		<rect x="431.6" y="293.1" class="st18" width="31" height="0.7"/>
		<rect x="431.6" y="293.7" class="st6" width="31" height="0.7"/>
		<rect x="431.6" y="294.4" class="st6" width="31" height="0.7"/>
		<rect x="431.6" y="294.4" class="st18" width="31" height="0.7"/>
		<rect x="431.6" y="284.6" class="st6" width="31" height="0.7"/>
		
			<rect x="465.3" y="263.8" transform="matrix(0.6394 -0.7688 0.7688 0.6394 -46.8307 458.7207)" class="st6" width="0.7" height="31"/>
		
			<rect x="443.6" y="253.4" transform="matrix(0.6394 -0.7688 0.7688 0.6394 -46.7034 438.2676)" class="st6" width="0.7" height="31"/>
		<rect x="431.6" y="285.2" class="st6" width="31" height="0.7"/>
		<rect x="431.6" y="285.2" class="st18" width="31" height="0.7"/>
		<rect x="431.6" y="285.9" class="st6" width="31" height="0.7"/>
		<rect x="431.6" y="286.5" class="st6" width="31" height="0.7"/>
		<rect x="431.6" y="286.5" class="st18" width="31" height="0.7"/>
		<rect x="431.6" y="287.2" class="st6" width="31" height="0.7"/>
		<rect x="431.6" y="287.9" class="st6" width="31" height="0.7"/>
		<rect x="431.6" y="287.9" class="st18" width="31" height="0.7"/>
		<rect x="431.6" y="288.5" class="st6" width="31" height="0.7"/>
		<rect x="431.6" y="289.2" class="st6" width="31" height="0.7"/>
		<rect x="431.6" y="289.2" class="st18" width="31" height="0.7"/>
		
			<rect x="424.3" y="299.8" transform="matrix(0.1826 -0.9832 0.9832 0.1826 55.4696 677.6598)" class="st6" width="22" height="11.3"/>
		
			<ellipse transform="matrix(0.1826 -0.9832 0.9832 0.1826 55.5738 677.8177)" class="st6" cx="435.4" cy="305.5" rx="4.6" ry="2.3"/>
		
			<ellipse transform="matrix(0.1826 -0.9832 0.9832 0.1826 55.5738 677.8177)" class="st18" cx="435.4" cy="305.5" rx="4.6" ry="2.3"/>
		
			<rect x="426.2" y="345.5" transform="matrix(0.1826 -0.9832 0.9832 0.1826 12.0727 716.8771)" class="st6" width="22" height="11.3"/>
		
			<ellipse transform="matrix(0.1826 -0.9832 0.9832 0.1826 12.1887 717.0255)" class="st6" cx="437.3" cy="351.2" rx="4.6" ry="2.3"/>
		
			<ellipse transform="matrix(0.1826 -0.9832 0.9832 0.1826 12.1887 717.0255)" class="st18" cx="437.3" cy="351.2" rx="4.6" ry="2.3"/>
		
			<rect x="390.8" y="247.7" transform="matrix(0.4759 -0.8795 0.8795 0.4759 -19.7531 484.2319)" class="st6" width="11.3" height="22"/>
		
			<ellipse transform="matrix(0.4788 -0.8779 0.8779 0.4788 -19.9698 484.7286)" class="st6" cx="398.3" cy="259.2" rx="2.3" ry="4.6"/>
		
			<ellipse transform="matrix(0.4788 -0.8779 0.8779 0.4788 -19.9698 484.7286)" class="st18" cx="398.3" cy="259.2" rx="2.3" ry="4.6"/>
		
			<rect x="348.2" y="443.9" transform="matrix(0.4759 -0.8795 0.8795 0.4759 -214.6183 549.5717)" class="st6" width="11.3" height="22"/>
		
			<ellipse transform="matrix(0.4759 -0.8795 0.8795 0.4759 -214.7552 549.6541)" class="st6" cx="353.8" cy="455" rx="2.3" ry="4.6"/>
		
			<ellipse transform="matrix(0.4759 -0.8795 0.8795 0.4759 -214.7552 549.6541)" class="st18" cx="353.8" cy="455" rx="2.3" ry="4.6"/>
		
			<rect x="322.2" y="282" transform="matrix(0.4759 -0.8795 0.8795 0.4759 -85.8714 441.916)" class="st6" width="11.3" height="22"/>
		
			<ellipse transform="matrix(0.4759 -0.8795 0.8795 0.4759 -85.9943 441.9057)" class="st6" cx="327.8" cy="293.1" rx="2.3" ry="4.6"/>
		
			<ellipse transform="matrix(0.4759 -0.8795 0.8795 0.4759 -85.9943 441.9057)" class="st18" cx="327.8" cy="293.1" rx="2.3" ry="4.6"/>
		
			<rect x="354.8" y="247.7" transform="matrix(0.4759 -0.8795 0.8795 0.4759 -38.6531 452.6319)" class="st6" width="11.3" height="22"/>
		
			<ellipse transform="matrix(0.4759 -0.8795 0.8795 0.4759 -38.7817 452.6025)" class="st6" cx="360.4" cy="258.8" rx="2.3" ry="4.6"/>
		
			<ellipse transform="matrix(0.4759 -0.8795 0.8795 0.4759 -38.7817 452.6025)" class="st18" cx="360.4" cy="258.8" rx="2.3" ry="4.6"/>
		
			<rect x="376" y="289.6" transform="matrix(0.9941 -0.1087 0.1087 0.9941 -30.4102 43.2658)" class="st6" width="11.3" height="22"/>
		
			<ellipse transform="matrix(0.9941 -0.1087 0.1087 0.9941 -30.4109 43.2485)" class="st6" cx="381.5" cy="300.6" rx="2.3" ry="4.6"/>
		
			<ellipse transform="matrix(0.9941 -0.1087 0.1087 0.9941 -30.4109 43.2485)" class="st18" cx="381.5" cy="300.6" rx="2.3" ry="4.6"/>
		
			<rect x="453" y="409.5" transform="matrix(0.9941 -0.1087 0.1087 0.9941 -42.9864 52.3452)" class="st6" width="11.3" height="22"/>
		
			<ellipse transform="matrix(0.9941 -0.1087 0.1087 0.9941 -42.9869 52.3289)" class="st6" cx="458.5" cy="420.5" rx="2.3" ry="4.6"/>
		
			<ellipse transform="matrix(0.9941 -0.1087 0.1087 0.9941 -42.9869 52.3289)" class="st18" cx="458.5" cy="420.5" rx="2.3" ry="4.6"/>
		
			<rect x="343.4" y="334.7" transform="matrix(0.4759 -0.8795 0.8795 0.4759 -121.0921 488.0883)" class="st6" width="11.3" height="22"/>
		
			<ellipse transform="matrix(0.4759 -0.8795 0.8795 0.4759 -121.2159 488.1539)" class="st6" cx="349" cy="345.8" rx="2.3" ry="4.6"/>
		
			<ellipse transform="matrix(0.4759 -0.8795 0.8795 0.4759 -121.2159 488.1539)" class="st18" cx="349" cy="345.8" rx="2.3" ry="4.6"/>
		
			<rect x="294.5" y="320.7" transform="matrix(0.4759 -0.8795 0.8795 0.4759 -134.4427 437.8416)" class="st6" width="11.3" height="22"/>
		
			<ellipse transform="matrix(0.4788 -0.8779 0.8779 0.4788 -134.7039 438.2112)" class="st6" cx="301.7" cy="332.6" rx="2.3" ry="4.6"/>
		
			<ellipse transform="matrix(0.4788 -0.8779 0.8779 0.4788 -134.7039 438.2112)" class="st18" cx="301.7" cy="332.6" rx="2.3" ry="4.6"/>
		
			<rect x="278.9" y="555.9" transform="matrix(0.4759 -0.8795 0.8795 0.4759 -349.4286 547.2988)" class="st6" width="11.3" height="22"/>
		
			<ellipse transform="matrix(0.4759 -0.8795 0.8795 0.4759 -349.5568 547.2797)" class="st6" cx="284.4" cy="566.9" rx="2.3" ry="4.6"/>
		
			<ellipse transform="matrix(0.4759 -0.8795 0.8795 0.4759 -349.5568 547.2797)" class="st18" cx="284.4" cy="566.9" rx="2.3" ry="4.6"/>
		
			<rect x="267.5" y="557" transform="matrix(0.1824 -0.9832 0.9832 0.1824 -335.1109 732.9023)" class="st6" width="11.3" height="22"/>
		
			<rect x="267.5" y="557" transform="matrix(0.1824 -0.9832 0.9832 0.1824 -335.1109 732.9023)" class="st22" width="11.3" height="22"/>
		
			<ellipse transform="matrix(0.1824 -0.9832 0.9832 0.1824 -335.261 733.0648)" class="st6" cx="273.2" cy="568.1" rx="2.3" ry="4.6"/>
		
			<ellipse transform="matrix(0.1824 -0.9832 0.9832 0.1824 -335.261 733.0648)" class="st18" cx="273.2" cy="568.1" rx="2.3" ry="4.6"/>
		
			<rect x="269.5" y="563.6" transform="matrix(0.1824 -0.9832 0.9832 0.1824 -340.0145 740.3951)" class="st6" width="11.3" height="22"/>
		
			<ellipse transform="matrix(0.1824 -0.9832 0.9832 0.1824 -340.1584 740.5687)" class="st6" cx="275.2" cy="574.8" rx="2.3" ry="4.6"/>
		
			<ellipse transform="matrix(0.1824 -0.9832 0.9832 0.1824 -340.1584 740.5687)" class="st18" cx="275.2" cy="574.8" rx="2.3" ry="4.6"/>
		
			<rect x="301.7" y="584.4" transform="matrix(0.4759 -0.8795 0.8795 0.4759 -362.5371 582.297)" class="st6" width="11.3" height="22"/>
		
			<ellipse transform="matrix(0.4759 -0.8795 0.8795 0.4759 -362.659 582.3776)" class="st6" cx="307.3" cy="595.5" rx="2.3" ry="4.6"/>
		
			<ellipse transform="matrix(0.4759 -0.8795 0.8795 0.4759 -362.659 582.3776)" class="st18" cx="307.3" cy="595.5" rx="2.3" ry="4.6"/>
		
			<rect x="290.4" y="585.6" transform="matrix(0.1824 -0.9832 0.9832 0.1824 -344.5458 778.8047)" class="st6" width="11.3" height="22"/>
		
			<rect x="290.4" y="585.6" transform="matrix(0.1824 -0.9832 0.9832 0.1824 -344.5458 778.8047)" class="st22" width="11.3" height="22"/>
		
			<ellipse transform="matrix(0.1824 -0.9832 0.9832 0.1824 -344.751 778.8502)" class="st6" cx="295.9" cy="596.7" rx="2.3" ry="4.6"/>
		
			<ellipse transform="matrix(0.1824 -0.9832 0.9832 0.1824 -344.751 778.8502)" class="st18" cx="295.9" cy="596.7" rx="2.3" ry="4.6"/>
		
			<rect x="292.4" y="592.3" transform="matrix(0.1824 -0.9832 0.9832 0.1824 -349.4624 786.3051)" class="st6" width="11.3" height="22"/>
		
			<ellipse transform="matrix(0.1807 -0.9835 0.9835 0.1807 -350.921 784.4335)" class="st6" cx="295.4" cy="602.8" rx="2.3" ry="4.6"/>
		
			<ellipse transform="matrix(0.1807 -0.9835 0.9835 0.1807 -350.921 784.4335)" class="st18" cx="295.4" cy="602.8" rx="2.3" ry="4.6"/>
		
			<rect x="336" y="565.9" transform="matrix(0.4759 -0.8795 0.8795 0.4759 -328.3566 602.8123)" class="st6" width="11.3" height="22"/>
		
			<ellipse transform="matrix(0.4759 -0.8795 0.8795 0.4759 -328.4852 602.7828)" class="st6" cx="341.5" cy="577" rx="2.3" ry="4.6"/>
		
			<ellipse transform="matrix(0.4759 -0.8795 0.8795 0.4759 -328.4852 602.7828)" class="st18" cx="341.5" cy="577" rx="2.3" ry="4.6"/>
		
			<rect x="324.6" y="567.1" transform="matrix(0.1824 -0.9832 0.9832 0.1824 -298.3981 797.4482)" class="st6" width="11.3" height="22"/>
		
			<rect x="324.6" y="567.1" transform="matrix(0.1824 -0.9832 0.9832 0.1824 -298.3981 797.4482)" class="st22" width="11.3" height="22"/>
		
			<ellipse transform="matrix(0.1824 -0.9832 0.9832 0.1824 -298.607 797.513)" class="st6" cx="330.2" cy="578.3" rx="2.3" ry="4.6"/>
		
			<ellipse transform="matrix(0.1824 -0.9832 0.9832 0.1824 -298.607 797.513)" class="st18" cx="330.2" cy="578.3" rx="2.3" ry="4.6"/>
		
			<rect x="326.7" y="573.8" transform="matrix(0.1824 -0.9832 0.9832 0.1824 -303.2974 804.9534)" class="st6" width="11.3" height="22"/>
		
			<ellipse transform="matrix(0.1824 -0.9832 0.9832 0.1824 -303.5144 805.0084)" class="st6" cx="332.3" cy="585" rx="2.3" ry="4.6"/>
		
			<ellipse transform="matrix(0.1824 -0.9832 0.9832 0.1824 -303.5144 805.0084)" class="st18" cx="332.3" cy="585" rx="2.3" ry="4.6"/>
	</g>
</g>
</svg>
