<?xml version="1.0" encoding="utf-8"?>
<!-- Generator: Adobe Illustrator 25.0.0, SVG Export Plug-In . SVG Version: 6.00 Build 0)  -->
<svg version="1.1" id="Layer_1" xmlns="http://www.w3.org/2000/svg" xmlns:xlink="http://www.w3.org/1999/xlink" x="0px" y="0px"
	 viewBox="0 0 1141.5 1110.3" style="enable-background:new 0 0 1141.5 1110.3;" xml:space="preserve">
<style type="text/css">
	.st0{fill:url(#SVGID_1_);}
	.st1{fill:url(#SVGID_2_);}
	.st2{fill:url(#SVGID_3_);}
	.st3{fill:url(#SVGID_4_);}
	.st4{fill:url(#SVGID_5_);}
	.st5{fill:#2BA14C;}
	.st6{fill:#352E73;}
	.st7{fill:#7271B3;}
	.st8{fill:#FC008B;}
	.st9{fill:#FF7A03;}
	.st10{fill:#FCC13F;}
	.st11{fill:#8CD334;}
	.st12{fill:#FEE2BF;}
	.st13{fill:#FAE0B2;}
	.st14{opacity:0.68;fill:#FF7A03;enable-background:new    ;}
	.st15{fill:#F3FFFF;}
	.st16{fill:#D6007E;}
	.st17{fill:#FFA42F;}
	.st18{fill:#7F1CA0;}
	.st19{fill:#ADEFF7;}
	.st20{fill:#65C49B;}
	.st21{fill:#2D2861;}
	.st22{fill:#137548;}
	.st23{fill:#F7A491;}
	.st24{opacity:0.5;fill:#F47458;enable-background:new    ;}
	.st25{fill:#F48C7F;}
	.st26{fill:#F79C8D;}
	.st27{fill:#F47458;}
</style>
<g id="Layer_2_1_">
	<g id="Layer_1-2">
		
			<linearGradient id="SVGID_1_" gradientUnits="userSpaceOnUse" x1="-538.2608" y1="3375.3293" x2="-323.9308" y2="3393.5193" gradientTransform="matrix(1 0 0 -1 654 3954)">
			<stop  offset="0" style="stop-color:#D1F2E3"/>
			<stop  offset="0.32" style="stop-color:#A6DDBC"/>
			<stop  offset="0.72" style="stop-color:#AFE1C4"/>
			<stop  offset="1" style="stop-color:#B6E4CA"/>
		</linearGradient>
		<path class="st0" d="M1144.5,1031.1c-730.5,204.5-681.3-26.5-937.6-297.2C99.6,595.9,10.4,599.1,3.1,471.8
			C-0.2,414.2,64.1,275.6,70.8,164c5.7-92.9-53-166.4,4-165C498.2,9.4,1141.5-0.1,1141.5-0.1L1144.5,1031.1z"/>
		
			<linearGradient id="SVGID_2_" gradientUnits="userSpaceOnUse" x1="-212.2504" y1="3420.6218" x2="555.7281" y2="3712.7988" gradientTransform="matrix(1 0 0 -1 654 3954)">
			<stop  offset="0" style="stop-color:#2B9D70"/>
			<stop  offset="0.99" style="stop-color:#3CD392"/>
		</linearGradient>
		<path class="st1" d="M1142.8,920C425,1083,596,1074,240.5,686.9c-117.4-132.8-110.7-112.5-138-193c-29-182.8,61-128,63-347
			c1.4-156-58.9-147-32-147h1008"/>
		<g id="Layer_1-3">
			
				<linearGradient id="SVGID_3_" gradientUnits="userSpaceOnUse" x1="-668.968" y1="-3998.4199" x2="-672.3181" y2="-3629.4502" gradientTransform="matrix(1 0 0 1 1218 4170.1602)">
				<stop  offset="0" style="stop-color:#8BF9FD"/>
				<stop  offset="0.99" style="stop-color:#FAFEE5"/>
			</linearGradient>
			<path class="st2" d="M694.2,568H397.4c-23.5,0-42.5-19-42.5-42.4c0,0,0-0.1,0-0.1l0,0c0-23.5,19-42.5,42.4-42.5c0,0,0.1,0,0.1,0
				h296.8c23.5,0,42.5,19,42.5,42.4c0,0,0,0.1,0,0.1l0,0C736.7,549,717.8,568,694.2,568C694.3,568,694.2,568,694.2,568z"/>
			
				<linearGradient id="SVGID_4_" gradientUnits="userSpaceOnUse" x1="-1043.98" y1="-3827.6301" x2="-543.8799" y2="-3827.6301" gradientTransform="matrix(1 0 0 1 1218 4170.1602)">
				<stop  offset="0" style="stop-color:#8BF9FD"/>
				<stop  offset="0.99" style="stop-color:#FAFEE5"/>
			</linearGradient>
			<path class="st3" d="M620.1,289.6L620.1,289.6c24,0,43.4-20.1,43.4-44.8l0,0c0-24.7-19.4-44.8-43.4-44.8H314.8
				c-21.4,0-38.8,17.9-38.8,40l0,0c0,26.5-20.8,48-46.5,48h-7.8c-26.3,0-47.7,22-47.7,49.2l0,0c0,27.2,21.3,49.2,47.7,49.2l0,0
				c25.7,0,46.5,21.5,46.5,48v10.5c0,22.2,17.5,40.2,39,40.2h319c26.5,0,47.9-22.1,47.9-49.4l0,0c0-27.3-21.4-49.4-47.9-49.4l0,0
				C600.5,386.1,597.7,289.6,620.1,289.6z"/>
			
				<linearGradient id="SVGID_5_" gradientUnits="userSpaceOnUse" x1="-388.493" y1="-3997.1001" x2="-391.8431" y2="-3627.1201" gradientTransform="matrix(1 0 0 1 1218 4170.1602)">
				<stop  offset="0" style="stop-color:#8BF9FD"/>
				<stop  offset="0.99" style="stop-color:#FAFEE5"/>
			</linearGradient>
			<path class="st4" d="M677.3,391.4v-6.7c0-24-17.7-43.5-39.4-43.5l0,0c-23.3,0-42.2-20.9-42.2-46.6l0,0
				c0-25.7,18.9-46.6,42.2-46.6h296.2c20.9,0,37.9,18.7,37.9,41.8l0,0c0,27.7,20.3,50.1,45.4,50.1h5.1c25.6,0,46.3,23.1,46.3,51.6
				l0,0c0,28.5-20.7,51.6-46.3,51.6l0,0c-24.9,0-45.2,22.5-45.2,50.3v9.6c0,23.2-16.9,42-37.7,42h-308c-25.6,0-46.3-23.1-46.3-51.6
				v-0.5c0-28.4,20.8-51.4,46.5-51.4l0,0C656.9,441.6,677.3,419.1,677.3,391.4z"/>
			<path class="st5" d="M239.4,271.1c-8.2-8.7-22-8.4-22.1-8.4c-5.5-0.1-11,1.7-15.4,5c-1.3,1-2.5,2.1-3.5,3.4l3.1,2.1
				c0.4-1.2,3-4.3,6.3-6c3-1.6,6.4-2.4,9.8-2.4c6.4-0.1,14.3,2.5,19,7.3C237.6,271.9,238.6,271.6,239.4,271.1z"/>
			<path class="st6" d="M159.4,373.8c16.2,7.2,35.4-0.4,42.8-17c5.3-11.6,3.4-25.2-4.8-34.9c9.7-25.4,9.5-48.5-1.2-53.3
				c-5-2.2-10.2,0.1-13.7,2.2c-6.5,3.9-11.5,9.5-15.8,15.2c-5.3,7-10.2,14.5-14.4,22.2c-4.1,7.4-8.1,15-10.7,23.1
				c-2.3,6.6-2.8,13.6-1.5,20.4c1.3,6.4,4.8,12.1,9.8,16.2C152.8,370.3,156,372.3,159.4,373.8z"/>
			<path class="st7" d="M196.9,284.9c0,0-11.7,35.8-11.7,39.7s9.9,7.4,7.5,21.6s-11.2,19.6-20.4,17.4s-12.1-14.4-4.9-15.1
				s14.2,1.2,16.3-6.8s-3.5-17.2-3.5-17.2L196.9,284.9z"/>
			<path class="st5" d="M197.3,287.6l-0.5-2.9c-0.1-0.4-0.5-0.6-0.9-0.5c0,0-0.1,0-0.1,0l-2.7,0.9c-0.4,0.1-1-0.2-1-0.6l0.1-2.6
				c0-0.4-0.4-0.7-0.8-0.7c-0.1,0-0.2,0-0.2,0.1l-4,1.9l-0.2,0.1l-1-4.9c-0.1-0.4-0.5-0.6-0.9-0.5c0,0-0.1,0-0.1,0l-3.5,1.2
				c-0.4,0.1-1-0.2-1-0.6l-0.4-4c0-0.3-0.3-0.5-0.6-0.6l-2.3-0.6c-0.3,0-0.6-0.3-0.6-0.7c0-0.1,0-0.1,0.1-0.2
				c7-9.8,18.5-7.5,19.3-7.4h0.1c1.5,0.4,2.9,1,4.2,1.7c11.3,6.1,7.7,19.3,6,24.1c-0.2,0.5-1.1,0.4-1.3-0.2l-0.2-0.7
				c-0.1-0.4-0.6-0.6-1-0.5c-0.1,0-0.2,0.1-0.2,0.1l0,0c-0.3,0.2-0.8,0.2-1-0.2c0,0-0.1-0.1-0.1-0.1l-0.6-1.6
				c-0.1-0.4-0.6-0.6-0.9-0.4c0,0,0,0-0.1,0l-2.6,1.1C197.9,288.3,197.5,288,197.3,287.6z"/>
			<path class="st8" d="M347.9,233.3l-71.4-58.7c-16.5,19.5-14,48.7,5.5,65.1c19.5,16.5,48.7,14,65.1-5.5
				C347.4,233.9,347.7,233.6,347.9,233.3z"/>
			<path class="st9" d="M313.3,240l-4.9-29.5l-18.2,22.1C296.8,237.7,305,240.3,313.3,240z"/>
			<path class="st9" d="M313.6,210.9l4.7,28.6c7-1.2,13.4-4.4,18.6-9.3L313.6,210.9z"/>
			<path class="st9" d="M305,206.5c-10.4,0.2-19.4,0.4-28.6,1.2c0.8,8,4.3,15.6,10,21.3L305,206.5z"/>
			<path class="st9" d="M276.2,202.7c8.4-0.8,16.7-1,26-1.2l-20.4-16.8C278.4,190.1,276.5,196.3,276.2,202.7z"/>
			<path class="st10" d="M320.1,223.6c1.1-0.5,1.6-1.7,1.2-2.8c-0.4-1.2-2.7-4.1-3.7-3.7s-0.4,3.6-0.1,4.8
				C317.8,223.1,318.9,223.8,320.1,223.6C320.1,223.6,320.1,223.6,320.1,223.6z"/>
			<path class="st10" d="M330.7,230.8c0.8-0.8,0.8-2.2-0.1-3c0,0,0,0,0,0c-0.9-0.9-4.2-2.5-4.9-1.7s1.2,3.4,2,4.4
				C328.4,231.4,329.8,231.5,330.7,230.8C330.7,230.8,330.7,230.8,330.7,230.8z"/>
			<path class="st10" d="M305.2,239c1.2-0.1,2-1,2-2.2c0-1.3-1.3-4.7-2.3-4.6s-1.6,3.3-1.6,4.5C303.2,237.8,304,238.9,305.2,239
				C305.2,239,305.2,239,305.2,239z"/>
			<path class="st10" d="M300.4,229.6c0.9,0.7,2.3,0.6,3-0.4c0,0,0,0,0,0c0.8-1,2.1-4.4,1.2-5.1s-3.3,1.5-4.1,2.4
				C299.7,227.3,299.7,228.7,300.4,229.6z"/>
			<path class="st10" d="M287,221.7c0.9,0.7,2.3,0.6,3-0.4c0,0,0,0,0,0c0.8-1,2.1-4.4,1.2-5.1s-3.3,1.5-4.1,2.4
				C286.2,219.4,286.2,220.8,287,221.7z"/>
			<path class="st10" d="M292.7,213c0.3,1.1,1.5,1.8,2.6,1.4c0,0,0.1,0,0.1,0c1.2-0.3,4.2-2.4,3.9-3.5s-3.6-0.6-4.8-0.4
				c-1.2,0.2-2,1.2-1.8,2.4C292.7,212.9,292.7,213,292.7,213z"/>
			<path class="st10" d="M280.7,198.2c-0.1,1.2,0.7,2.2,1.9,2.3c0,0,0,0,0,0c1.2,0.2,4.8-0.6,4.9-1.7s-3-2-4.3-2.2
				C282.1,196.3,281,197.1,280.7,198.2z"/>
			<path class="st10" d="M287.9,195.3c-0.6,1-0.3,2.2,0.6,2.8c0,0,0.1,0,0.1,0.1c1,0.8,4.6,1.6,5.2,0.7s-1.8-3.1-2.8-3.9
				C290,194.4,288.8,194.5,287.9,195.3z"/>
			<path class="st5" d="M367.7,466.1c4.9,1.6,7.2,7.5,5,13.3s-7.9,9.1-12.8,7.6s-7.2-7.5-5-13.3S362.8,464.6,367.7,466.1z"/>
			<path class="st11" d="M366.6,467.1c1.4,0,2.6,1.1,2.6,2.6c0,0,0,0,0,0c-0.1,1.4-1.3,2.4-2.7,2.3c0,0-0.1,0-0.1,0
				c-1.4,0-2.6-1.1-2.6-2.6c0,0,0,0,0,0C363.9,468,365.1,467,366.6,467.1C366.6,467.1,366.6,467.1,366.6,467.1z"/>
			<path class="st5" d="M357.8,147.6l0.5-0.3c1-0.6,2.3-0.5,3.3,0.1l0,0c0.8,0.6,1.9,0.8,2.9,0.4l0.5-0.2c1-0.4,1.7-1.1,2.1-2.1
				v-0.1c0.4-1.1,1.4-1.9,2.6-2.1l0.5-0.1c1.2-0.2,2.4,0.3,3.1,1.3l0,0c0.6,0.8,1.6,1.4,2.6,1.4h0.5c1,0,2-0.4,2.6-1.3v-0.1
				c0.7-1,1.9-1.4,3.1-1.1l0.5,0.1c1.2,0.2,2.1,1.1,2.5,2.2v0.1c0.3,1,1,1.8,1.9,2.2l1.6,0.6c0.3,0.1,0.6,0.1,0.8-0.1
				c2.1-1.2,0,0,2.3-1.3c0.3-0.2,0.7-0.2,1,0l1.6,0.9c1,0.6,1.6,1.7,1.6,2.9v0.1c-0.1,1,0.3,2,1.1,2.7l0.4,0.4
				c0.8,0.7,1.8,0.9,2.8,0.7c0.1,0-0.2-0.1,1.4-0.3c0.4-0.1,0.7,0.1,0.9,0.4l1.9,2.4c0.2,0.3,0.3,0.7,0.2,1l-0.5,1.4
				c-0.4,0.9-0.4,2,0.1,2.9l0.3,0.5c0.5,0.9,1.4,1.5,2.4,1.6l0,0c1.2,0.2,2.2,1,2.6,2.1l0.2,0.5c0.4,1.1,0.1,2.4-0.7,3.3h-0.1
				c-0.7,0.7-1.1,1.8-0.9,2.8l0.1,0.5c0.2,1,0.8,1.9,1.7,2.4l0,0c1.1,0.6,1.7,1.7,1.7,2.9v0.6c0,1.2-0.7,2.3-1.8,2.8
				c-0.1,0,0.1,0-1.2,0.4c-0.2,0.1-0.3,0.2-0.3,0.4l-0.5,2.3c-0.1,0.4,0,0.8,0.2,1.2l0.7,1.4c0.8,0.9,1,2.2,0.6,3.3l-0.4,1
				c-0.1,0.3-0.3,0.5-0.5,0.6l-1.9,1c-1.1,0.1-2,0.7-2.5,1.6l-0.3,0.5c-0.5,0.9-0.6,2-0.2,2.9v0.1c0.4,1.1,0.2,2.4-0.6,3.3l-0.3,0.4
				c-0.8,0.9-2,1.3-3.2,1l0,0c-1-0.2-2.1,0-2.9,0.6L396,205c-0.8,0.7-1.2,1.7-1.2,2.7v0.1c0,1.2-0.6,2.3-1.7,2.9l-0.5,0.3
				c-0.5,0.3-1.1,0.4-1.7,0.4L388,206l-26.6-49.9l-4.3-8.1C357.4,147.9,357.6,147.8,357.8,147.6z"/>
			<path class="st11" d="M361.7,155.7c12.8-6.8,28.7-1.7,35.7,11.4s2.2,29.1-10.5,35.9L361.7,155.7z"/>
			<path class="st12" d="M391.9,192.9c1,1,1.1,2.7,0.1,3.7c-1,1-2.7,1.1-3.7,0.1c-0.1-0.1-0.1-0.1-0.2-0.2c-1-1-3.5-5.8-2.4-6.8
				S390.9,191.9,391.9,192.9z"/>
			<path class="st12" d="M393.8,180.6c1.4-0.2,2.7,0.9,2.9,2.3s-0.9,2.7-2.3,2.9c-0.1,0-0.1,0-0.2,0c-1.4,0.1-6.7-0.9-6.9-2.4
				S392.3,180.7,393.8,180.6z"/>
			<path class="st12" d="M389.4,168.5c1.1-1,2.7-0.9,3.7,0.2c1,1.1,0.9,2.7-0.2,3.7l0,0c-1,0.9-6,3.3-6.9,2.2
				S388.3,169.4,389.4,168.5z"/>
			<path class="st12" d="M378.9,161.3c0.6-1.3,2.2-1.9,3.5-1.3c1.3,0.6,1.9,2.2,1.3,3.5l0,0c-0.6,1.3-4.1,5.4-5.4,4.8
				S378.3,162.7,378.9,161.3z"/>
			<path class="st12" d="M367.2,159.8c-0.1-1.5,1-2.7,2.4-2.9c1.4-0.1,2.7,0.9,2.8,2.4c0,0,0,0,0,0c0.1,1.5-0.9,6.8-2.3,6.9
				S367.4,161.2,367.2,159.8z"/>
			<path class="st8" d="M989.3,177.6c-14.9-14.7-38.9-14.5-53.6,0.4c-0.2,0.2-0.4,0.4-0.5,0.5c-14.7,15.4-14.3,39.8,0.9,54.7
				c15,14.7,39,14.5,53.7-0.5c0.1-0.1,0.2-0.2,0.4-0.4C1004.9,216.8,1004.5,192.5,989.3,177.6z M952.4,216.1c-5.8-5.7-6-15.1-0.3-21
				c5.6-5.9,14.8-6.1,20.7-0.5c0,0,0.1,0.1,0.1,0.1c5.9,5.7,6,15.1,0.3,21c0,0,0,0,0,0c-5.5,5.9-14.7,6.1-20.5,0.7
				C952.6,216.3,952.5,216.2,952.4,216.1z"/>
			<path class="st13" d="M959.2,181.8L959.2,181.8c-0.8-0.8-0.8-2-0.1-2.8l2.7-2.8c0.7-0.8,1.9-0.8,2.7-0.1c0,0,0,0,0,0l0,0
				c0.8,0.8,0.8,2,0.1,2.8l-2.7,2.8C961.2,182.5,960,182.5,959.2,181.8C959.2,181.8,959.2,181.8,959.2,181.8z"/>
			<path class="st13" d="M984.2,220.5L984.2,220.5c-0.9,0.6-2,0.4-2.7-0.4l-2.3-3.2c-0.6-0.9-0.4-2,0.4-2.7l0,0
				c0.9-0.6,2-0.4,2.7,0.4l2.3,3.2c0.6,0.8,0.5,1.9-0.3,2.6C984.3,220.4,984.3,220.4,984.2,220.5z"/>
			<path class="st13" d="M949.1,187.3l-0.1,0.3c-0.2,0.9-1.1,1.6-2,1.4c0,0-0.1,0-0.1,0l-2.7-0.6c-0.9-0.2-1.6-1.1-1.4-2
				c0,0,0-0.1,0-0.1l0.1-0.3c0.2-0.9,1.1-1.6,2-1.4c0,0,0.1,0,0.1,0l2.7,0.6C948.7,185.3,949.3,186.2,949.1,187.3
				C949.1,187.2,949.1,187.3,949.1,187.3z"/>
			<path class="st13" d="M969.4,230.6l-0.1,0.3c-0.2,0.9-1.1,1.6-2,1.4c0,0-0.1,0-0.1,0l-2.7-0.6c-0.9-0.2-1.6-1.1-1.4-2
				c0,0,0-0.1,0-0.1l0.1-0.3c0.2-0.9,1.1-1.6,2-1.4c0,0,0.1,0,0.1,0l2.7,0.6C969,228.7,969.6,229.6,969.4,230.6z"/>
			<path class="st13" d="M978.5,187.8l-0.3,0.2c-0.8,0.6-1.9,0.5-2.5-0.3c0,0,0,0,0,0l-1.7-2.2c-0.6-0.8-0.5-1.9,0.3-2.5
				c0,0,0,0,0,0l0.3-0.2c0.8-0.6,1.9-0.5,2.5,0.3c0,0,0,0,0,0l1.7,2.2C979.4,186,979.3,187.1,978.5,187.8
				C978.5,187.8,978.5,187.8,978.5,187.8z"/>
			<path class="st13" d="M956.1,231.7L956.1,231.7c-0.8,0.7-2,0.5-2.7-0.3c0,0,0,0,0,0l-1.5-1.9c-0.7-0.9-0.6-2.1,0.3-2.8l0,0
				c0.8-0.7,2-0.5,2.7,0.3c0,0,0,0,0,0l1.5,1.9C957.1,229.7,957,230.9,956.1,231.7C956.2,231.6,956.1,231.7,956.1,231.7z"/>
			<path class="st13" d="M990.5,200.9v0.4c0.1,1-0.7,1.8-1.7,1.9c0,0,0,0,0,0l-2.8,0.2c-1,0.1-1.8-0.7-1.9-1.7c0,0,0,0,0,0v-0.4
				c-0.1-1,0.7-1.8,1.7-1.9c0,0,0,0,0,0l2.8-0.2C989.6,199.2,990.4,199.9,990.5,200.9z"/>
			<path class="st13" d="M943.3,218v0.4c0.1,1-0.7,1.8-1.7,1.9c0,0,0,0,0,0l-2.8,0.2c-1,0.1-1.8-0.7-1.9-1.7c0,0,0,0,0,0v-0.4
				c-0.1-1,0.7-1.8,1.7-1.9c0,0,0,0,0,0l2.8-0.2C942.4,216.3,943.2,217,943.3,218z"/>
			<path class="st13" d="M940.5,204.3L940.5,204.3c-0.9,0.6-2.1,0.4-2.7-0.5c0,0,0,0,0,0l-2.2-3.2c-0.6-0.9-0.4-2.1,0.5-2.7
				c0,0,0,0,0,0l0,0c0.9-0.6,2.1-0.4,2.7,0.5c0,0,0,0,0,0l2.2,3.2C941.6,202.5,941.4,203.7,940.5,204.3z"/>
			<polygon class="st10" points="991.5,344.8 919.4,395.2 917.6,390.5 898.7,340.9 948.7,305.9 			"/>
			<polygon class="st14" points="948.7,374.7 927.1,389.8 906.1,335.7 914.6,329.7 			"/>
			<polygon class="st14" points="976.5,355.2 960.1,366.7 925.5,322.1 934.2,316 			"/>
			<path class="st15" d="M926.4,316.7c0,0-9.7,5.4-16.4,8.2s-17.9,8.5-17.6,14.8s6.5,11.1,9.5,9.6s4.5-3.7,5.8-6.9s0.5-5.2,0.1-7.1
				c0,0-0.3-2,2.7,0.5s5.7,16.3,9.8,21.2s9.8-0.1,7.4-4.6c-1.8-3.5-16.6-14.9-15.8-18.5s3.9-4.6,6-2.4s3.6,10.7,6.8,13.6
				s7.2-1.5,4.9-5s-11-8.9-9.9-10.8s6.6,1,12.4,0.5s7.2-8.7,7-12.3s3.1-11.5,10.4-7s13.4,23.5,17.3,27.4s12.3,0,9-6.8
				c-2.7-5.7-16.8-15.8-22.3-20.9c-1.1-1-2-2.5-1.6-3.9c0.7-2.3-0.2-4.6-2.6-6.5c-4.3-3.3-11.7-1.9-16.2,4.2
				C930.4,307.9,928.1,312.2,926.4,316.7z"/>
			<path class="st15" d="M935.6,309.9c0,0-6.6,3.2-7,3.5s-10.3,2.6-14.8,6.4c-3.6,3.3-6.8,6.8-9.8,10.6c0,0,23.7-10.4,24-10.6
				S935.6,309.9,935.6,309.9z"/>
			<path class="st9" d="M917.3,289.1c3.4,0.5,7.1,2.3,8.7,5.4c2.5,4.9-0.5,11.1-2.2,14.2c-0.3,0.6-0.9,1-1,1.4
				c1.7-3.9,4-8.1,3.4-12.4c-0.6-4.5-4.6-7-9.1-7.4L917.3,289.1z"/>
			<path class="st8" d="M930.5,312.4c0.7,3.4-2.3,6.9-6.6,7.8s-8.5-1.1-9.2-4.5s2.3-6.9,6.6-7.8S929.8,309,930.5,312.4z"/>
			<path class="st16" d="M924.9,307.8c4.3,3.4,1.7,9.6-4.6,10.9c-1.2,0.2-2.4,0.3-3.6,0.1c2.1,1.5,4.7,2,7.2,1.4
				c4.4-0.9,7.3-4.4,6.6-7.8C930,309.9,927.8,308.2,924.9,307.8z"/>
			<path class="st5" d="M983.7,258.3c0.1,0.2,0.2,0.3,0.2,0.5c0.6,1.4,1.2,2.7,1.9,4.1l0,0l32.6-8.1l18.7-13.7l-1.9-5.4l-1.8,0.6
				l-0.9,1.9l-2.1,0.1l-1,1.8h-2.1l-1,2h-2.1l-1.1,1.6l-2.1-0.1l-1.1,1.8l-2.1-0.1l-1.1,1.7l-2.1-0.2l-1.2,1.7l-2.1-0.2l-1.2,1.7
				l-2-0.3l-1.2,1.6l-2-0.3l-1.3,1.6l-2-0.4l-1.4,1.6l-2-0.5l-1.4,1.5l-2-0.6l-1.5,1.4l-2-0.6l-1.6,1.4l-1.9-0.8l-1.6,1.3l-1.9-0.9
				l-1.7,0.6C983.1,257,983.5,257.6,983.7,258.3z"/>
			<path class="st11" d="M985.5,262.8c-0.4,0,10.5,20.1,12.1,26s8.9,26,8.9,26l53.1-20.8c0,0-14-26.8-17.2-35.7s-4.6-17-5.1-17
				S999.8,261.3,985.5,262.8z"/>
			<path class="st9" d="M1027.8,312.4c0,0,6.8,10.5,23.9,6.4c15.8-3.8,14.2-20.8,5.9-21.4s-17.1,1.1-22-0.5
				C1026.5,294,1023,307.5,1027.8,312.4z"/>
			<path class="st10" d="M1047.9,290.9c-0.5,1.7-0.7,3.4-0.6,5.2c0.4,4.1,2.9,7.8,6.5,9.8c9,5.3,28.7,0.1,24.7-10.2
				s-13.1-1.4-18.5-3.9c-2.5-1.2-4.1-3.5-6.8-3.9C1051,287.6,1048.9,288.8,1047.9,290.9z"/>
			<path class="st10" d="M1060.9,255.2c1.1,1.4,2.6,2.4,4.2,3.1c3.8,1.7,8.1,1.4,11.7-0.6c9.1-5,14.8-24.6,3.8-26.4
				s-7.8,10.5-12.8,13.9c-2.2,1.5-5.1,1.7-6.8,3.8C1059.7,250.8,1059.7,253.3,1060.9,255.2z"/>
			<path class="st10" d="M1026.7,302.7c-3.4,1.8-7.4,2.4-11.2,1.5c-2.8-0.6-9.2-1-12.8,2.4c-6.4,6.2-3.3,15.5,5.9,19.2
				c8.1,3.2,31.1,1.1,31-15.6C1039.6,298.6,1032.6,299.6,1026.7,302.7z"/>
			<path class="st12" d="M1044,270.3c2.3,6.6-5.4,15.3-17.2,19.5c-11.8,4.2-23.4,2.3-25.7-4.2s5.4-15.3,17.2-19.5
				S1041.6,263.7,1044,270.3z"/>
			<path class="st9" d="M1005.9,319.6c1.5-1.1,2.3-3.2,3.2-4.8c1-1.9,1.7-3.8,2.2-5.9c0.1-0.6-0.6-0.7-0.9-0.3
				c-1.1,1.8-2,3.6-2.8,5.5c-0.8,1.6-2.1,3.3-2.4,5C1005,319.5,1005.6,319.8,1005.9,319.6L1005.9,319.6z"/>
			<path class="st9" d="M1011.4,321.2c2.8-1.1,5-8.2,5.6-11.2c0.2-0.7-1-1.1-1.3-0.4c-0.7,2-1.5,4-2.4,5.9c-0.8,1.6-2.4,3.4-2.5,5.2
				C1010.8,321.1,1011.1,321.4,1011.4,321.2L1011.4,321.2z"/>
			<path class="st9" d="M1019.7,319.9c0.5-1.1,0.8-2.4,0.9-3.6c0.2-1.4,0.6-2.7,0.8-4c0.1-0.6-0.3-1.1-0.8-1.2
				c-0.5-0.1-1,0.2-1.2,0.6c-0.9,2.2-1.8,5.9-0.8,8.2C1018.8,320.4,1019.4,320.4,1019.7,319.9z"/>
			<path class="st9" d="M1025.7,318.3c0.3-1.6,0.4-3.9-0.5-5.3c-0.6-1-2.3,1.4-0.5,5.4c0.1,0.3,0.4,0.4,0.7,0.3
				C1025.6,318.6,1025.7,318.5,1025.7,318.3z"/>
			<path class="st9" d="M1027.6,313c0.8,3.8,2.7,2.8,2.5,1.8c-0.3-0.9-0.8-1.7-1.5-2.4c-0.3-0.2-0.7-0.1-0.9,0.2
				C1027.6,312.7,1027.6,312.9,1027.6,313z"/>
			<path class="st9" d="M1053.5,293.1c-0.7,1.1-1.3,2.2-1.6,3.5c-0.3,1.2-0.8,2.5-0.1,3.5c0.2,0.3,0.5,0.4,0.8,0.2
				c0.1,0,0.1-0.1,0.1-0.1c0.8-0.8,0.8-1.9,1.1-2.9c0.3-1.3,0.6-2.5,0.8-3.8c0-0.3-0.3-0.6-0.6-0.6
				C1053.8,292.9,1053.6,293,1053.5,293.1L1053.5,293.1z"/>
			<path class="st9" d="M1056.7,294.8c-0.6,1.5-1.7,6-1.1,7.6c0.1,0.3,0.5,0.5,0.8,0.4c0.2-0.1,0.3-0.2,0.4-0.4
				c0.4-1.1,0.5-2.3,0.5-3.5c0.1-1.3,0.3-2.5,0.4-3.8C1057.8,294.5,1056.9,294.1,1056.7,294.8L1056.7,294.8z"/>
			<path class="st9" d="M1061,295.2c-0.1,1.4-0.4,6.1,0.1,7.5c0.1,0.3,0.5,0.5,0.8,0.4c0.2-0.1,0.3-0.2,0.4-0.4
				c0.7-2.2,0.2-5.2-0.1-7.5C1062,294.7,1061.1,294.6,1061,295.2z"/>
			<path class="st9" d="M1065,295.8c-0.1,0.9-0.1,1.8,0,2.7c0.2,2.1,0.2,3.3,1.1,3.3c0.5,0.1,1-0.3,1.1-0.9c0,0,0-0.1,0-0.1
				c0-0.7-0.4-4.1-1-5.1c-0.1-0.3-0.5-0.5-0.8-0.3C1065.2,295.4,1065,295.6,1065,295.8z"/>
			<path class="st9" d="M1069.4,295.9c-0.7,1.5-0.5,3.6,0.6,3.7c0.4,0,0.8,0,1-0.5c0.5-0.9-0.6-1.6-0.5-2.9c0-0.3-0.2-0.6-0.5-0.6
				C1069.8,295.5,1069.5,295.7,1069.4,295.9L1069.4,295.9z"/>
			<path class="st9" d="M1066.6,251.6c0.8,1.5,1.7,1.4,2.5,4.5c0.2,1,1.9,0.6,1.7-0.4c-0.3-1.8-1.6-4.5-3.7-4.8
				C1066.8,250.9,1066.4,251.3,1066.6,251.6L1066.6,251.6z"/>
			<path class="st9" d="M1069,249.6c4.4,3.9,3.8,5.3,5.4,6.1c0.3,0.1,0.6,0.1,0.7-0.2c0-0.1,0.1-0.1,0.1-0.2c0.3-1.4-1.1-2.9-2-3.8
				c-1-1.1-2.3-2.1-3.7-2.7C1069,248.5,1068.6,249.2,1069,249.6L1069,249.6z"/>
			<path class="st9" d="M1072.1,246c5,3.5,5.1,5.6,6.7,5.4c0.2,0,0.4-0.1,0.4-0.3c0.4-1.3-1.3-2.6-2.2-3.4c-1.3-1.1-2.7-2-4.3-2.6
				c-0.2-0.2-0.6-0.1-0.8,0.2S1071.9,245.8,1072.1,246L1072.1,246L1072.1,246z"/>
			<path class="st9" d="M1074.8,241.7c1.8,1.3,3.7,2.2,5.4,3.6c0.5,0.4,1.2,0.3,1.6-0.1c0.4-0.5,0.3-1.2-0.2-1.6
				c-1.9-1.5-3.9-2.8-6.3-3C1074.7,240.7,1074.3,241.4,1074.8,241.7L1074.8,241.7z"/>
			<path class="st9" d="M1080.3,238.7c0.2,0.3,0.6,0.5,1,0.3l0,0c0.2,0,0.4-0.1,0.4-0.3l-0.1,0.1c0.3-0.4,0.2-0.9-0.1-1.2
				c-1-0.9-2.4-1.3-3.7-1c-0.5,0.1-0.7,1,0,1C1078.8,237.6,1079.7,238,1080.3,238.7z"/>
			<path class="st10" d="M1073.9,271c0.8,2.4,2.1,4.5,3.8,6.3c4.3,4.4,10.8,6.6,17.7,6.4c17.2-0.5,40.3-20.6,25.4-29.3
				s-19.5,7.9-29.4,8.9c-4.5,0.5-8.8-1-13,0.4C1075.1,264.9,1073.3,268.6,1073.9,271z"/>
			<path class="st9" d="M1085.6,267.8c-0.8,0.9-0.1,2.4,0,3.4c0.1,1.2-0.6,2.8,0.2,3.9c0.2,0.2,0.5,0.4,0.8,0.1c1.2-0.9,1-2.7,0.8-4
				c-0.1-1.1-0.2-3-1.6-3.5C1085.8,267.7,1085.7,267.8,1085.6,267.8L1085.6,267.8z"/>
			<path class="st9" d="M1090.9,267.1c0.1,1.7,0.4,3.3,0.7,5c0.2,1.6-0.1,3.5,0.6,5c0.2,0.4,0.9,0.3,1.1,0c0.8-1.5,0.4-3.4,0.2-4.9
				c-0.2-1.8-0.7-3.6-1.7-5.2C1091.6,266.7,1090.9,266.6,1090.9,267.1L1090.9,267.1z"/>
			<path class="st9" d="M1097.3,265.6c2.2,7.5,1.4,9.3,2.9,11c0.9,1,3.6,0-2-11.2C1098,265,1097.2,265.2,1097.3,265.6z"/>
			<path class="st9" d="M1102.3,263.3c-0.3,1.6,1.3,3.7,2.1,5.2c0.9,1.9,2.1,3.7,3.4,5.4c0.5,0.5,1.6,0.1,1.4-0.5
				c-0.7-2-1.6-3.8-2.7-5.6c-0.8-1.5-1.7-3.8-3.4-4.8C1102.9,262.8,1102.4,263,1102.3,263.3z"/>
			<path class="st9" d="M1107.4,259.8c2.1,2.8,3.9,5.8,6.2,8.5c1,1.2,3,0,2.5-1.2c-1.4-3.2-4.6-6-7.9-7.9
				C1107.6,258.9,1107.1,259.4,1107.4,259.8L1107.4,259.8z"/>
			<path class="st9" d="M1112.9,257.7c0.8,1.2,2.6,4,4.3,3.9c0.6,0,1.2-0.3,1.2-0.9c0.2-1.5-3.2-3.1-4.5-3.8
				C1113.5,256.7,1112.6,257.1,1112.9,257.7z"/>
			<path class="st17" d="M857.7,247.4c-5.1,2.1-10.5,3.4-16,3.9c-11.4,0.8-22.3-4.4-28.9-13.7c-6.6-9.1-8.8-20.8-5.4-29.1
				c4-9.7,15-14.8,23.8-14.8c2.9,0,5.8,0.5,8.5,1.6c2.1-4.9,6-8.8,10.8-11c6.2-2.6,14.9-1.7,22,2.4c7.5,4.3,12.6,11.8,13.7,20.4
				c1.1,8.4-1.8,17.3-8.3,25.3C872.5,238.9,865.6,244.1,857.7,247.4z M824.9,206.3c-3.1,1.3-5.9,3.5-7.1,6.4
				c-1.6,3.9-0.7,11.5,4.1,18.2c4.2,6.2,11.4,9.6,18.9,9.1c11-0.9,21.1-6.2,28.2-14.7c4.5-5.5,6.6-11.4,5.9-16.7
				c-0.5-5.1-3.6-9.6-8.1-12.1c-4.5-2.6-9.5-2.8-12-1.8c-2.9,1.5-5,4.2-5.6,7.4c-0.4,1.7-0.2,3.3,0.5,4c2.2,2.2,2.1,5.8-0.1,8
				c-0.6,0.6-1.4,1.1-2.3,1.3c-0.4,0.8-0.9,1.6-1.4,2.4c-1.7,2.7-5.1,3.5-7.8,1.8s-3.5-5.1-1.8-7.8c1.4-2.2,1.5-3.4,1.4-3.6
				c-1.2-2.8-4.7-3.2-6.6-3.2C829,204.9,826.9,205.4,824.9,206.3z"/>
			<path class="st9" d="M880.9,204.3c-2,1.4-4,2.6-6.2,3.7c0,0.2,0.1,0.4,0.1,0.7c0.7,5.2-1.4,11.1-5.9,16.6
				c2.7-0.6,5.4-1.5,7.9-2.6c2.9-1.2,5.7-2.6,8.3-4.3c1.1-3.7,1.3-7.5,0.8-11.3c-0.2-1.2-0.4-2.5-0.7-3.6
				C883.7,203,882.1,203.3,880.9,204.3z"/>
			<path class="st9" d="M831.6,238.6c-3.9-1.6-7.2-4.3-9.6-7.7c-0.4-0.5-0.7-1.1-1.1-1.6c-3.4,2.9-6.6,5.4-8.9,7
				c0.3,0.4,0.6,0.8,0.8,1.2c2.5,3.5,5.7,6.5,9.3,8.9C824.7,244.4,828.1,241.7,831.6,238.6z"/>
			<path class="st17" d="M875.3,216.8c-9.8,4.1-23.9,7.2-33.7-2.9c-2.1-2.3-2-5.9,0.3-8c2.2-2,5.6-2,7.8,0.1
				c9.2,9.5,30.1-4.4,30.3-4.6c2.6-1.8,6.1-1.2,7.9,1.4c1.8,2.6,1.2,6.1-1.4,7.9l0,0C883,213.2,879.3,215.2,875.3,216.8z"/>
			<path class="st17" d="M817.3,242.8c-2.6,1.1-5.5,0.2-7-2.2c-1.6-2.7-0.8-6.1,1.8-7.8l0,0c5.1-3.2,19.4-13.1,24.3-21
				c1.7-2.6,5.1-3.4,7.8-1.8c2.6,1.7,3.5,5.1,1.8,7.8c-7.3,11.7-27.1,24.1-27.9,24.6C817.8,242.5,817.6,242.7,817.3,242.8z"/>
			<path class="st11" d="M346.9,284c0,0-1.7,5.8,3.2,9.2s17.1-5.5,21.2-7.3s5.7-0.4,5.7-0.4s-9.3-18.8-23.6-15.9
				C344.8,271.3,344.3,277.4,346.9,284z"/>
			<path class="st5" d="M366.3,285.2c-1.4-0.2-4.9-1-6.3-2c4.5,0,9,0.3,13.5,0.9c-2.2-0.5-5.1-1-8.2-1.5c0.2-1.9,3.9-2.6,4-2.6
				s0.2-0.4-0.1-0.4s-4,0.7-4.3,2.9c-1.4-0.2-2.8-0.3-4.3-0.5c0.5-3.4,5.6-5.1,5.7-5.1s0.2-0.1,0.1-0.2s-0.1-0.2-0.2-0.1
				s-5.5,1.8-5.9,5.5c-1.5-0.1-3-0.2-4.5-0.2c0-4.3,6-7.5,6.1-7.5s0.1-0.5-0.2-0.3s-6.3,3.3-6.3,7.8c-1.7,0-3.5,0.1-5.2,0.3
				c-0.6-4.4,4-8.5,4-8.5c0.1-0.1,0.1-0.2,0-0.3s-0.2-0.1-0.3,0c-0.2,0.2-4.8,4.3-4.1,8.9c-0.6,0.1-1.3,0.2-1.9,0.4
				c-6.7,1.9-8.2-2.9-8.7-3.4c-0.2-0.3-0.5-0.5-0.9-0.4c-1.6,0.5,0.8,3.9,2.6,5.1c3.1,1.9,5.5,1,8.8,0.2c2,4.8,6.5,5.6,6.5,5.8l0,0
				c0.1-0.2,0.2-0.3,0.2-0.4c0-0.1-0.1-0.2-0.2-0.2c-2.8-0.7-5.1-2.7-6.2-5.3c1.3-0.3,2.6-0.5,3.9-0.6c1.5,2.8,7,3.7,7.3,3.5l0,0
				c0.1,0.2,0.2,0.1,0.2,0c0-0.1-0.1-0.2-0.2-0.2c-0.1,0-5.3-0.8-6.9-3.4c1.7-0.1,3.4-0.2,5.1-0.2c1.4,1.5,6.6,2.4,6.8,2.4
				s0.2,0,0.2-0.2C366.5,285.4,366.4,285.3,366.3,285.2z"/>
			<path class="st15" d="M282.7,277.9c0,0-24.4-5.5-32.8,17.4s-3.9,43.7,11.2,47.1c15.1,3.4,18.2-8.3,34.3-9.6s27.6-30.9,14.6-43.9
				S282.7,277.9,282.7,277.9z"/>
			<path class="st10" d="M292.8,310.1c0,9.3-7.6,16.9-16.9,16.9s-16.9-7.6-16.9-16.9c0-9.3,7.6-16.9,16.9-16.9l0,0
				C285.2,293.2,292.8,300.8,292.8,310.1z"/>
			<path class="st17" d="M275.9,293.2c-0.7,0-1.5,0-2.2,0.1c9.3,1.4,15.6,10.1,14.2,19.4c-1.1,7.3-6.9,13.1-14.2,14.2
				c0.7,0.1,1.5,0.1,2.2,0.1c9.3,0,16.9-7.6,16.9-16.9C292.8,300.7,285.2,293.2,275.9,293.2L275.9,293.2z"/>
			<path class="st17" d="M299.7,383.1c-1.7-3.1-2-6.4,0.4-9.7c5.3-7.4,17.2-10.6,27.7-12.1c35.9-5.2,78.8,14.8,81.5,37.4
				s-22.1,41.9-42.1,41.9s-38.2-26.5-41.5-32.5c-3.1-5.6-9.2-9.1-14.6-13.4C307,391.3,302,387.4,299.7,383.1z"/>
			<path class="st9" d="M409.3,398.6c-2.8-22.6-45.6-42.6-81.5-37.4c-10.5,1.5-22.4,4.8-27.7,12.1c0,0.1-0.1,0.1-0.1,0.2
				c5.4-2.1,11.1-3.6,16.9-4.3c35.9-5.2,78.8,14.8,81.5,37.4c1.3,10.8-3.7,20.9-11.5,28.4C400.3,427.8,411.2,414,409.3,398.6z"/>
			<path class="st12" d="M378.4,412.3c0,5.9-6.5,10.7-14.6,10.7s-14.6-4.8-14.6-10.7s6.5-10.7,14.6-10.7S378.4,406.4,378.4,412.3z"
				/>
			<path class="st9" d="M372.7,412.3c0,3.6-4,6.5-8.9,6.5s-8.9-2.9-8.9-6.5s4-6.5,8.9-6.5S372.7,408.7,372.7,412.3z"/>
			<path class="st12" d="M377.3,421.6c0,1.6-1.5,2.8-3.4,2.8c-1.5,0.3-3-0.7-3.3-2.3c-0.3-1.5,0.7-3,2.3-3.3c0.4-0.1,0.7-0.1,1.1,0
				C375.7,418.8,377.3,420,377.3,421.6z"/>
			<path class="st12" d="M345.6,377.4c0,0-23.1,4.8-25.6,17.4C320,394.9,332.6,380.9,345.6,377.4z"/>
			<path class="st12" d="M359,382.1c0,0-31.8,8.8-28.7,22.8C330.3,404.9,342.2,388.3,359,382.1z"/>
			<path class="st17" d="M236.3,415.5c0,0,13.6-13.6-3.4-19.9s-21.1,10-21.1,10s-26.9-15.9-31.1,8.4s15.5,18.1,15.5,18.1
				s-12.1,22.5,7.1,22.5s17.9-15.3,17.9-15.3s18.8,16.9,26.9-2C256.2,418.4,236.3,415.5,236.3,415.5z M241.4,434.7
				c-6.4,15.1-21.4,1.6-21.4,1.6s1,12.2-14.2,12.2s-5.7-17.9-5.7-17.9s-15.7,4.9-12.4-14.5s24.8-6.7,24.8-6.7s3.3-13,16.8-8
				s2.7,15.9,2.7,15.9S247.8,419.6,241.4,434.7L241.4,434.7z"/>
			<path class="st5" d="M416.8,289c0,0-4.6-21.4-16.8-19.4s-8.9,11.4-5.1,11.4s2.8-6.8,9.2-4.7s10.1,12.7,10.1,12.7H416.8z"/>
			<path class="st8" d="M402.9,297.8c0,0-10-3.1-15.9,6s1.2,29.7,16.9,42.5s26,18.6,30.3,16.6s3.5-4.8,3.5-4.8s15.1,6.6,16.2-7.9
				c0,0,11.2,6.8,12.9-8.6s-8.8-67.8-28.8-65c0,0-9.9-0.1-12.1,10.2C426.1,286.9,406.2,275.8,402.9,297.8z"/>
			<path class="st10" d="M400.2,302.7c-2.6-1.7-10.1-2.2-8.9,8.6s33.8,47.6,39.4,46.1S413.2,311.5,400.2,302.7z"/>
			<path class="st10" d="M422,292.1c-2.1-2.2-9.7-5.5-11.8,2.5s30.3,65.5,35.1,59.2S433.3,304.1,422,292.1z"/>
			<path class="st10" d="M443.3,284.7c-1.6-2-7-4.8-10-1.2c-6.5,7.6,20.3,69.6,24.2,62.9S453.2,297,443.3,284.7z"/>
			<path class="st5" d="M310.7,443.4c0,0-1.8,4.9-24.7,13c-25.5,9-37.4,10.7-45,35.1c8.1-1.9,16.4-3.2,24.7-3.9
				C290.1,485.6,308.2,465.1,310.7,443.4z"/>
			<path class="st5" d="M310.7,443.1c0,0,2.3,3.4,5.6,24.4c5.3,33.9-19.1,47.5-37.1,41c0,0,19.4-10,22.4-25.7
				C304.3,468.6,310.7,443.1,310.7,443.1z"/>
			<path class="st12" d="M286.6,470.4c0,4.4-3.5,7.9-7.9,7.9c-4.4,0-7.9-3.5-7.9-7.9c0-4.4,3.5-7.9,7.9-7.9l0,0
				C283.1,462.5,286.6,466,286.6,470.4z"/>
			<path class="st12" d="M271.5,476.3c0,3-2.4,5.5-5.5,5.5c0,0,0,0,0,0c-3,0-5.5-2.5-5.5-5.5s2.5-5.5,5.5-5.5
				C269,470.8,271.5,473.2,271.5,476.3C271.5,476.3,271.5,476.3,271.5,476.3z"/>
			<path class="st12" d="M260.4,481c0,3-2.4,5.5-5.5,5.5c0,0,0,0,0,0c-3,0-5.5-2.5-5.5-5.5s2.5-5.5,5.5-5.5
				C257.9,475.5,260.4,478,260.4,481z"/>
			<circle class="st12" cx="292" cy="463.4" r="5.5"/>
			<path class="st11" d="M281,463.4c11.1-1.6,23-13,27.7-17.8c-2.7,2.2-8.8,5.9-22.7,10.8c-25.5,9-37.4,10.7-45,35.1
				C241,491.5,266.8,465.5,281,463.4z"/>
			<path class="st11" d="M310.6,444.6c-2.6,10.4-36.1,33-48,36c-7.9,2.1-15.2,5.9-21.6,10.9c8.1-1.9,16.4-3.2,24.7-3.9
				C289.7,485.7,307.5,465.8,310.6,444.6z"/>
			<path class="st7" d="M310.7,443c0,0-9-0.3-7.2,2.5s5.6-0.2,5.6-0.2s-2.9,1.7-2.5,4s3.1,1.3,3.7,0c0.4-0.8,0.5-1.6,0.4-2.5
				c0,0,0.1,3.6,1.8,3.9s0-4.3,0-4.3s1.4,2,2.3,1.1S310.7,443,310.7,443z"/>
			<path class="st7" d="M310.3,444.8c0.7-1.9,1.1-3.9,1-5.9c0-5.3-1.3-6.5,0.1-6.8c0.4-0.1,0.8,0.2,0.9,0.6
				C312.4,433.7,312.5,441,310.3,444.8z"/>
			<path class="st11" d="M304.2,495.5c0.5,2.3,0,4.8-1.3,6.8c-2.3,3.2-8.4,3.5-10.9,1.8c1.4,0.5,3,0.6,4.5,0.4
				c4.7-0.7,6-2.2,6.9-4.6C304,498.5,304.2,497,304.2,495.5z"/>
			<path class="st11" d="M309.7,479.4c6.4,5.2,3.5,15.9-5.5,16.1C312.6,493.8,314.8,485.3,309.7,479.4z"/>
			<path class="st11" d="M310.7,464.4c3.1,1.7,4.9,5.1,4.6,8.6c0,0.4-0.1,0.8-0.2,1.2c-0.8,2.6-2.9,4.5-5.5,5.2
				C316.5,475.6,315.7,468.9,310.7,464.4z"/>
			<path class="st7" d="M836.5,260.3c-3.4-1.4-7.7,1.3-9.8,6s-1,9.8,2.3,11.3s7.7-1.3,9.8-6S839.9,261.8,836.5,260.3z M835.4,262.8
				c1.8,0.8,2.9,2.3,2.4,3.4s-2.3,1.4-4.1,0.6s-2.9-2.3-2.4-3.4S833.7,262,835.4,262.8L835.4,262.8z M830.4,274.4
				c-2.5-1.1-4-3.4-3.3-5.1s3.4-2.2,5.9-1.1s4,3.4,3.3,5.1S833,275.5,830.4,274.4L830.4,274.4z"/>
			<path class="st18" d="M814.5,273.6c-2.5,2.2-4.4,5-5.7,8L781.5,345c-1.6,3.9,0.2,8.3,4,10l36.3,15.6c3.8,1.7,8.3-0.1,10-3.9
				l27.3-63.4c1.3-3,1.9-6.3,1.8-9.6L814.5,273.6z"/>
			<path class="st18" d="M814.5,273.6c-2.5,2.2-4.4,5-5.7,8L781.5,345c-1.6,3.9,0.2,8.3,4,10l36.3,15.6c3.8,1.7,8.3-0.1,10-3.9
				l27.3-63.4c1.3-3,1.9-6.3,1.8-9.6L814.5,273.6z"/>
			<path class="st8" d="M859.1,303.2l-27.3,63.4c-1.7,3.8-6.2,5.6-10,3.9l-36.3-15.6c-3.8-1.6-5.7-6-4.1-9.9c0,0,0-0.1,0.1-0.1
				l27.3-63.4c1.3-3,3.3-5.8,5.7-8l46.4,20C861,296.8,860.4,300.1,859.1,303.2z"/>
			<path class="st10" d="M791.2,349.1l27.3-63.4c1.3-3,3.3-5.8,5.7-8l-9.6-4.1c-2.5,2.2-4.4,5-5.7,8L781.6,345
				c-1.6,3.9,0.2,8.3,4,10l9.6,4.1C791.4,357.4,789.6,353,791.2,349.1C791.2,349.1,791.2,349.1,791.2,349.1z"/>
			<path class="st16" d="M859.1,303.2l-27.3,63.4c-1.7,3.8-6.2,5.6-10,3.9l-14.8-6.4c3.9,1.7,8.4-0.1,10.1-3.9l27.3-63.4
				c1.3-3,1.9-6.3,1.8-9.6l14.8,6.4C861,296.9,860.4,300.1,859.1,303.2z"/>
			<path class="st6" d="M860.9,293.5l-46.4-20l0,0c0.9-2,3.2-3,5.2-2.1c0,0,0,0,0.1,0l39,16.8C860.8,289.1,861.8,291.4,860.9,293.5
				L860.9,293.5z"/>
			
				<rect x="806.1" y="319.8" transform="matrix(0.3952 -0.9186 0.9186 0.3952 171.2068 954.3869)" class="st6" width="8.6" height="54.7"/>
			
				<rect x="815.3" y="423.6" transform="matrix(0.7921 -0.6104 0.6104 0.7921 -105.8829 601.2595)" class="st19" width="28.6" height="65"/>
			<polygon class="st6" points="817.1,411.3 814.8,411.4 814.6,412.6 813.1,412.7 812.9,414 811.4,414.1 811.2,415.3 809.7,415.4 
				809.5,416.6 808,416.7 807.7,417.9 806.3,418 806,419.3 804.5,419.3 804.3,420.6 802.8,420.7 802.6,421.9 801.1,422 800.9,423.2 
				799.4,423.3 799.2,424.6 797.7,424.6 797.4,425.9 795.9,426 795.7,427.2 794.2,427.3 794,428.5 792.5,428.6 792.3,429.9 
				790.8,429.9 790.6,431.2 789.1,431.3 788.7,433.3 788.6,433.3 788.7,433.3 788.7,433.4 788.9,433.4 795.4,435.2 798.4,439.1 
				821.1,421.6 818.1,417.7 817.1,411.3 817.1,411.4 			"/>
			<polygon class="st6" points="869.8,479.4 863.7,476.7 860.9,473.1 838.3,490.5 841.1,494.1 841.3,501.1 841.2,501.3 841.3,501.3 
				841.3,501.4 841.4,501.3 843.4,501.5 843.9,500.1 845.1,500.2 845.6,498.7 846.8,498.9 847.3,497.4 848.6,497.6 849,496.1 
				850.3,496.2 850.7,494.8 852,494.9 852.4,493.5 853.7,493.6 854.2,492.1 855.4,492.3 855.9,490.8 857.2,490.9 857.6,489.5 
				858.9,489.6 859.3,488.2 860.6,488.3 861,486.8 862.3,487 862.7,485.5 864,485.6 864.5,484.2 865.7,484.3 866.2,482.9 867.5,483 
				867.9,481.5 869.2,481.7 869.8,479.5 869.7,479.5 			"/>
			
				<rect x="821.2" y="430.6" transform="matrix(0.792 -0.6106 0.6106 0.792 -105.7709 601.2656)" class="st12" width="16.5" height="50.4"/>
			<polygon class="st7" points="798.4,439.1 807.6,441.1 820.7,431 821.1,421.6 			"/>
			<polygon class="st7" points="838.1,490.5 838.4,481 851.5,470.9 860.7,473.1 			"/>
			<path class="st20" d="M727.4,116.2c1.4-5.6,3.1-11.2,9-13.6c5.1-2.1,11.2,0.1,14.6,4.3c9.7,12.2-9.9,34.5-21.8,44.7
				c-3.4,2.9-8.2,5.1-9.9,9.3c0.4-0.6,0.7-1.2,1.1-1.9c-0.5,0.6-1,1.2-1.6,1.8c-2.2,2.5-0.1,7,3.4,5.9c4.6-1.4,4.8-0.9,12.6-7.3
				c3.6-3,7-6.2,10.2-9.6c6.5-7,12.5-14.9,16.1-23.8c8.9-22.4-10.8-38.6-27.1-32.8c-8.7,3.1-17.2,13.2-14.3,22.9
				C720.8,119.9,726.4,120.1,727.4,116.2z"/>
			<path class="st20" d="M721.6,193.6c6.2,0,6.2-9.7,0-9.7S715.3,193.6,721.6,193.6z"/>
			<path class="st20" d="M660.3,63.7c-3.7-9.9-1-22.5,8.1-28.6c8.8-6,21.4-4.1,28.8,3.4c9.5,9.7,7.9,27.1,4,39
				c-2.1,6.5-5.4,12.6-9.8,17.9c-4.8,5.7-10.6,10.4-16.1,15.5c-11.3,10.4-24.2,26.9-16.5,43c2,4.1,7.7,1.1,6.9-2.9
				c-4.7-24.4,23.7-35.5,36.9-55.3c4.3-6.5,7.4-13.7,9.1-21.3c3.3-14.7,2.6-33.7-9.8-44.2c-10.3-8.7-26.2-11-37.8-3.4
				c-12.8,8.4-18.4,26.3-11.1,40.1C655.1,70.7,661.8,68,660.3,63.7L660.3,63.7z"/>
			<path class="st20" d="M679.3,178.5c0,4.8-3.9,8.7-8.7,8.7s-8.7-3.9-8.7-8.7c0-4.8,3.9-8.7,8.7-8.7
				C675.4,169.8,679.3,173.7,679.3,178.5z"/>
			<path class="st8" d="M913.7,490.6c-3.1,4.5-7.5,6.9-10,5.2s-1.9-6.7,1.1-11.2s7.5-6.9,10-5.2S916.8,486,913.7,490.6z"/>
			<path class="st10" d="M964.6,503.8c0,4.6-3.8,8.4-8.4,8.4c-4.6,0-8.4-3.8-8.4-8.4c0-4.6,3.8-8.4,8.4-8.4
				C960.8,495.4,964.6,499.2,964.6,503.8z"/>
			<path class="st11" d="M1008.9,492.7c0,4.6-3.8,8.4-8.4,8.4c-4.6,0-8.4-3.8-8.4-8.4c0-4.6,3.8-8.4,8.4-8.4
				C1005.1,484.3,1008.9,488.1,1008.9,492.7z"/>
			<path class="st7" d="M927.1,515.7c-1.5,2.2-6,1.7-10.1-1.1s-6.2-6.8-4.8-9s6-1.7,10.1,1.1S928.6,513.5,927.1,515.7z"/>
			<path class="st11" d="M944.3,479.9c0,3.5-2.9,6.4-6.4,6.4c-3.5,0-6.4-2.9-6.4-6.4c0-3.5,2.9-6.4,6.4-6.4
				C941.4,473.5,944.3,476.3,944.3,479.9C944.3,479.9,944.3,479.9,944.3,479.9z"/>
			<path class="st8" d="M907,415c0,2-3.8,3.7-8.5,3.7S890,417,890,415s3.8-3.7,8.5-3.7S907,412.9,907,415z"/>
			<ellipse class="st10" cx="865.6" cy="381.4" rx="9.1" ry="4.2"/>
			<path class="st21" d="M729.1,242.7c-11.4-18.3-31.5-32.1-53.8-32.1c-40.2-0.1-64.1,19.1-77.3,40.7c-0.4,0.7-0.8,1.4-1.3,2.1
				c-30.5,50.2-47.2,85.7-100.8,107.6c-125.8,51.6-97.2,190.2-19,240.8c124.2,80.3,202.9,1.1,245.7-94.2
				C789,360,737.2,255.7,729.1,242.7z"/>
			<path class="st22" d="M591.3,697.3c0,0-29.9,50.8-41.7,96.3c-8.1,31.5-12.2,126.4-12.2,126.4h255.1c0,0-28.5-189.8-82-214.1
				S591.3,697.3,591.3,697.3z"/>
			<path class="st10" d="M741.1,435.4c-37-3.5-137.4,5.6-182.9,13c-6.5,1,31.5,226.8,21.1,266.5l-21.2,43.4
				c0,0,127.6,27.4,191.7-7.3L714,696.3C720.4,667,769.5,438.1,741.1,435.4z"/>
			<path class="st23" d="M620.3,376.8c0,0-5.5,134.7,26.5,137.5s32.8-79.3,33.2-89.4l2.2-54.9L620.3,376.8z"/>
			<path class="st24" d="M619.9,405.5c20.4,23.9,50.1,20.2,60.6,4.6l1.6-40l-61.9,6.8C620.3,376.8,619.8,388.7,619.9,405.5z"/>
			<path class="st23" d="M743.6,728.4c15.8-5.1,74-274.4-6.7-293.3c0,0,1.9,5.9-0.9,55.5c-3.2,57.8-20.3,185.3-20.3,185.3
				s-72.8-18.1-130.1-11.7l-48.1,28l-7.3,31.3c0,0,17.4,17.4,21.1,17.4s-6-15.3-6-15.3s9,9,11.2,6.8s-4-14.3-4-14.3l34.7-18.5
				C587,699.6,727.8,733.6,743.6,728.4z"/>
			<path class="st17" d="M736.8,435.1c0,0-2.4,0.5-3,55.6c-0.3,29.6-5,77.4-9.6,117c20.2-1,40.4-0.2,60.5,2.4
				C798,527.4,790.6,436.9,736.8,435.1z"/>
			<path class="st25" d="M517.6,505.7c-0.7,56.2,6.2,141.7,42.1,190.1c9.4,12.7,27.3-23.6,27.3-23.6S573.1,446,558.1,448.3
				C544.4,450.5,518.2,459.5,517.6,505.7z"/>
			<path class="st17" d="M583.5,621.1c-5.1-66.6-14.9-174.4-25.3-172.8c-13.8,2.1-45.1,11.1-45.6,57.4c-0.4,37.1,2.5,89,14.8,132.6
				c11.2-6.4,27.8-14.3,40.9-15.2C573.4,622.7,578.5,622,583.5,621.1z"/>
			<path class="st25" d="M622.7,390.3c-1.2,3.8-2.2,7.7-2.9,11.6c-1.2,6.7,1.4,13.1-3.6,19.6s13.5,45.4,13.5,45.4s3.9-14.3,2.2-26.7
				s0.4-42.8,3-45.4S622.7,390.3,622.7,390.3z"/>
			<path class="st26" d="M604.9,362.4l-13.7,14.8l-9.7,13.4c0,0,2.3,24.3,1,28.6s-0.7,7.3,0.9,12.9s11.7,33.1,12.3,43.7
				c0,0-18.7,57.8-22.9,67.9s-22.9,80.5-26.7,99.2c-2.6,12.5,8.3,54.4,20.3,59.6c11.7,5.1,25.6,6.8,37-59.6
				c2.9-16.8,22.2-147.8,22.2-153.3s5.4-11.4,5.8-22.8c0.5-13.4-12.9-28.6-12.9-28.6l8.8-14.2l7.8-1c0,0,8.5,8.5,10.9,6
				s-4.5-10.3-4.5-10.3s2.7,3.2,5,1S636,402.9,636,402.9l-19.3-9l-3.9,0.6l-16.7,15.6l-0.9-18.3l7-13.1
				C602.5,378.7,615.5,365,604.9,362.4z"/>
			<path class="st27" d="M640.2,418.1c-0.6-0.3-1.2-0.5-1.8-0.8l-1.8-0.9l-1.8-0.9l-1.8-0.9l0.4,0.1c-1.2,0.1-2.4,0.1-3.6,0.2
				s-2.4,0.1-3.6,0.1l0.6-0.2c-2.5,2.1-5.1,4.1-7.7,6c-1.3,1-2.6,1.9-4,2.8s-2.7,1.8-4.1,2.6c1.1-1.2,2.3-2.3,3.5-3.5l3.6-3.3
				c2.4-2.1,5-4.2,7.5-6.2l0.3-0.2h0.3c1.2,0,2.4,0,3.6,0.1s2.4,0.1,3.6,0.2h0.2l0.1,0.1c0.6,0.4,1.1,0.8,1.6,1.1s1.1,0.8,1.6,1.2
				s1.1,0.8,1.6,1.2S639.7,417.7,640.2,418.1z"/>
			<path class="st27" d="M640.2,415.7c-0.6-0.7-1.2-1.4-1.7-2.1l-1.7-2.1l-1.6-2.1l-1.6-2.2l0.4,0.3c-1.1-0.3-2.2-0.6-3.2-0.9
				c-1.1-0.3-2.2-0.6-3.2-1c-2.2-0.7-4.3-1.3-6.4-2l0.8-0.1l-3.2,2.2l-3.3,2.1c-1.1,0.7-2.2,1.4-3.3,2c-1.1,0.7-2.2,1.3-3.4,1.9
				c1-0.9,1.9-1.7,3-2.6s2-1.6,3-2.5l3.1-2.4l3.1-2.3l0.3-0.3l0.5,0.1c2.2,0.6,4.3,1.3,6.4,2c1.1,0.4,2.1,0.7,3.2,1.1
				s2.1,0.7,3.2,1.1l0.3,0.1l0.1,0.2l1.4,2.3l1.4,2.3l1.3,2.4C639.4,414.1,639.8,414.9,640.2,415.7z"/>
			<path class="st23" d="M608.5,261.6c0,0-8.4,19-8.4,58.5s9.5,62.2,27.9,75.3s39.7,7.3,50,0c18.7-13.2,36.9-62.2,31.6-96.9
				S688.6,195.2,608.5,261.6z"/>
			<path class="st21" d="M636.4,221.8c-1.8,0-26.1,9.5-37.7,34.2s0,58.5,0,58.5s8.8-22.1,16.3-24s35.9,7.4,47.2-4
				s25.3-34.8,25.3-34.8s-2.8,29.9-11.3,38.4s25.8,13.4,34.1,2.9s12.2,32.9,12.2,32.9s4.2-55.8-22.4-84.6
				C673.6,212.9,636.4,221.8,636.4,221.8z"/>
			<path class="st5" d="M519.2,155.9c0,0,22.4,19.7,9.8,45.4s-54.8,49.1-62.4,48.4c-6.2-0.5-10.4-4.2-14.5-8.5
				c-3.5-3.8-0.4-2.8,6.3-20.1s12.2-15.4,16-34.5S503.6,143.2,519.2,155.9z"/>
			<path class="st11" d="M466,240.7c-3.4,2-7.4,2.5-11.2,1.5h-0.1c-5-1.3-9.2-5.7-2.5-23s10.8-18.5,14.5-37.6s36.7-38.8,52.3-26.1
				c0.7,0.7,1.4,1.5,2,2.3c3.7,9.4,4.9,21.4-2.2,34.9C509.1,211.4,485.4,229.4,466,240.7z"/>
			<path class="st12" d="M520.3,164.7c-1.1-5-5.1-8.8-10.1-9.7c-15.2-2.7-37.8,12.5-40.7,27.1c-2.4,12.4-5,17.5-8.3,23.9
				s-17.5,31.6-4.4,34.6c7,1.6,15.3-6.8,20.6-10.4c5.2-3.5,10.3-7.3,15.1-11.4c4.8-4,11.1-8.7,14.5-14.1
				C509.4,201,525.2,186.1,520.3,164.7z"/>
			<path class="st9" d="M478.5,182.2c-6.7,10.8-6,23.3,1.4,27.9s18.8-0.4,25.5-11.3s6-23.3-1.4-27.9S485.1,171.4,478.5,182.2z"/>
			<path class="st5" d="M497.8,294.9c-2.1,7.8-11.2,11.8-20.4,8.8s-14.9-11.7-12.8-19.5s11.2-11.8,20.4-8.8S499.9,287,497.8,294.9z"
				/>
			<path class="st11" d="M496.2,293.2c-0.2,2.2-2,3.8-4.2,3.6c-2.2-0.2-3.8-2-3.6-4.2c0.2-2,1.9-3.6,3.9-3.6c2.2,0.1,4,1.9,3.9,4.1
				C496.2,293.1,496.2,293.1,496.2,293.2z"/>
			<path class="st11" d="M531.4,255.7c0,0,3.9,7.5,12.1,6.4s11.9-21.7,14.2-27.4s5.3-5.7,5.3-5.7s-27.4-10.6-39,5.9
				C517.1,244.6,522.6,251.3,531.4,255.7z"/>
			<path class="st5" d="M552.1,238.6c-1.7,1.1-5.9,3.6-8.3,3.8c4.6-4.2,9.4-8.1,14.4-11.8c-2.7,1.6-6.1,3.7-9.6,6.2
				c-1.6-2.2,1.5-6.3,1.5-6.4c0.1-0.1,0.1-0.3,0-0.4c-0.1-0.1-0.3-0.1-0.4,0.1l0,0c-0.1,0.2-3.4,4.5-1.6,7c-1.6,1.1-3.2,2.3-4.7,3.6
				c-2.8-3.9,0.8-10.5,0.8-10.6s0-0.3-0.1-0.4s-0.3,0-0.4,0.1c-0.2,0.3-3.8,7-0.7,11.2c-1.6,1.3-3.2,2.7-4.7,4
				c-4.2-4.4-1.2-13.3-1.1-13.4c0.1-0.3-0.4-0.5-0.5-0.2s-3.2,9.3,1.2,14c-1.7,1.6-3.4,3.4-4.9,5.2c-4.8-3.9-4.1-12.4-4.1-12.5
				s-0.1-0.3-0.2-0.3s-0.3,0.1-0.3,0.2c0,0.4-0.7,9,4.3,13c-0.6,0.8-1.1,1.5-1.6,2.2c-5,8.2-11.1,4.8-12,4.7c-0.5-0.2-1.1,0-1.3,0.5
				c-1.1,2,4.6,3.2,7.5,2.7c4.9-1,6.5-4.1,9.1-8c3.8,1.8,8.3,1.7,12-0.4l0,0c0.1-0.1,0.1-0.2,0-0.3c0,0,0,0,0,0
				c-0.1-0.1-0.2-0.2-0.4-0.1c-3.5,1.9-7.7,2-11.3,0.4c1.1-1.6,1.9-2.6,3.3-4.3c4.2,1.5,10.6-2.8,10.9-3l0,0c0.1-0.1,0.1-0.2,0-0.4
				s-0.3-0.2-0.4-0.1s-6.2,4.2-10.2,3c1.5-1.7,3.2-3.4,4.9-5c2.9,0.2,8.9-3.7,9.2-3.9c0.1-0.1,0.2-0.2,0.1-0.4
				C552.4,238.5,552.2,238.5,552.1,238.6z"/>
			<path class="st17" d="M1025.7,372.9c-6.8,5.8-11.2,13.7-17.1,20.3c-1.5,1.7-3.2,3.3-5,4.8c-7.8,6.1-20.6,10.9-24.9,18.6
				c0,0-8.4,12.2,10.8,20.4s68.8-36.9,62.2-60.6c-0.9-3.2-2.5-6.6-5.6-8.3C1039.1,364.2,1031.2,368.3,1025.7,372.9L1025.7,372.9z"/>
			<path class="st8" d="M990.5,448.9c-1.9,0.5-4,0.4-5.9-0.3c-4.9-1.9-7.4-7.4-5.6-12.3c0.3-0.9,8.2-21.3,34.8-32.7
				c19.3-8.3,28-27.2,29.1-34.5c0.6-5.2,5.3-9,10.6-8.4c5.2,0.6,9,5.3,8.4,10.6c0,0.2,0,0.4-0.1,0.6c-1.9,13.2-14.5,38.2-40.4,49.4
				c-18.7,8-24.2,21.4-24.5,22C995.7,445.9,993.4,448,990.5,448.9z"/>
			<path class="st12" d="M986.1,435.8c-0.3-2.3-1.4-9.1,1.2-10.6c1.7-0.9,2.1,2.7,3.7,3.6c3.4,2,6.2-1.8,6.8-4.7
				c0.5-2.5-0.4-6.4,1-8.6c3.7-5.7,4.9-0.3,8.2,0.4c4.5,0.9,5.1-4,5.9-7.1c1.6-6.3,4.7-2.9,5.7-2.5c1.5,0.6,3.3,0.4,4.7-0.4
				c2.3-1.5,1.9-3.8,2.8-6c2.4-6.4,11.7-1.5,13.3-12.5c0.6-3.7-0.4-2,2.1-3c1.8-0.7,3.2-0.5,4.5-2.2s0.2-6.8,1.3-7.5
				c1.2-0.7,1.6-2.3,0.8-3.4c-0.7-1.2-2.3-1.6-3.4-0.9c-1.9,0.9-3.3,2.7-3.5,4.8c-0.2,2.3,1.4,2.7-0.8,4.3c-1.2,0.9-3.8-0.9-5.5,4.8
				c-0.8,2.8-0.9,5.1-3.7,6.5c-1.5,0.7-3.3,0.8-4.8,1.5c-6.4,2.9-4.1,7.9-5.4,9c-1.6,1.3-1.8,0-3.2-0.3c-4.4-0.9-6.8,0.2-8.6,4.8
				c-0.4,1.1-0.5,2.6-1,3.7c-1.3,2.7-2.5,1.2-4.5,0.9c-1.6-0.2-2.4-1-4.1,0c-4.9,2.6-3.5,14-5.9,14.7c-1.9,0.5-3-3.3-4.7-3.9
				c-5.4-1.9-10.3,7.4-7.4,15.3C982.3,438.7,986.5,438.6,986.1,435.8L986.1,435.8z"/>
			<path class="st10" d="M1045.1,383.2c-7.6,6.6-12.5,15.7-19.1,23.2c-1.7,2-3.6,3.8-5.6,5.5c-8.7,6.9-23.1,12.3-27.9,21.1
				c0,0-9.3,13.9,12.2,23.5c21.5,9.6,77.1-41.8,69.5-69c-1-3.7-2.9-7.6-6.3-9.5C1060.2,373.3,1051.3,377.9,1045.1,383.2
				C1045.2,383.1,1045.2,383.2,1045.1,383.2z"/>
		</g>
	</g>
</g>
</svg>
