<?xml version="1.0" encoding="utf-8"?>
<!-- Generator: Adobe Illustrator 25.0.0, SVG Export Plug-In . SVG Version: 6.00 Build 0)  -->
<svg version="1.1" id="ab4228c3-7560-46c3-9f28-56b448991f21"
	 xmlns="http://www.w3.org/2000/svg" xmlns:xlink="http://www.w3.org/1999/xlink" x="0px" y="0px" viewBox="0 0 670 711.6"
	 style="enable-background:new 0 0 670 711.6;" xml:space="preserve">
<style type="text/css">
	.st0{fill:#3F3D56;}
	.st1{fill:#18AB29;}
	.st2{fill:#2F2E41;}
	.st3{fill:#9F616A;}
	.st4{fill:#F2F2F2;}
	.st5{opacity:0.1;enable-background:new    ;}
	.st6{fill:#FFB8B8;}
	.st7{fill:#575A88;}
	.st8{fill:#8985A8;}
	.st9{fill:none;stroke:#2F2E41;stroke-miterlimit:10;}
	.st10{fill:#6C63FF;}
</style>
<path class="st0" d="M553.5,688.6c-15.4,0-30.1,0.3-43.5,0.8c0-0.1,0-0.2,0-0.3c0-4.7-16-8.9-42.5-12.2c77.9-4.2,130-12,130-20.9
	c0-13.4-118.8-24.3-265.4-24.3S66.8,642.6,66.8,656c0,2.5,4.1,4.9,11.8,7.2C32.9,664.7,0,669,0,674.1c0,6.4,52.2,11.5,116.5,11.5
	c20.6,0,39.9-0.5,56.7-1.5c-4.1,1.6-6.2,3.2-6.2,5c0,10.2,76.8,18.5,171.5,18.5c39.4,0,75.6-1.4,104.5-3.8
	c15.5,4.6,59.1,7.8,110.5,7.8c64.3,0,116.5-5.1,116.5-11.5S617.8,688.6,553.5,688.6z"/>
<path class="st0" d="M96,622.1c6.7,24.8,29.7,40.1,29.7,40.1s12.1-24.8,5.4-49.6s-29.7-40.1-29.7-40.1S89.3,597.3,96,622.1z"/>
<path class="st1" d="M105.9,616.8c18.4,17.9,20.6,45.5,20.6,45.5s-27.6-1.5-46-19.4s-20.6-45.5-20.6-45.5S87.5,598.9,105.9,616.8z"
	/>
<path class="st2" d="M337.6,89.5c0,0,2.1,2.4-1.5,7.1s-0.7,14.8,6.2,15.1s10.2,3.1,8.6,6.9s-3.6,12.8,3.8,11.4s9.9,1.6,8.5,3.9
	s3.3-4.6,3.3-4.6s4.2,6.2,9.3,1.9c5.1-4.4,7.2-43.8-3.3-44.5S337.6,89.5,337.6,89.5z"/>
<polygon class="st3" points="390.5,277.1 392.9,293.7 403.6,293.7 400,274.7 "/>
<path class="st4" d="M404.8,283.6c0,0,14.3,13.1,10.7,14.3s-16.7,15.5-19,16.7c-2.1,1.1-25,8.3-21.4,0s11.9-13.1,11.9-13.1l2.4-14.3
	L404.8,283.6z"/>
<path class="st5" d="M404.8,283.6c0,0,14.3,13.1,10.7,14.3s-16.7,15.5-19,16.7c-2.1,1.1-25,8.3-21.4,0s11.9-13.1,11.9-13.1l2.4-14.3
	L404.8,283.6z"/>
<polygon class="st3" points="404.8,264.6 407.2,281.2 417.9,281.2 414.3,262.2 "/>
<path class="st6" d="M360,220.4l15.6-51.5c0,0-26.2-23.8-8.3-30.9c17.8-7.1,22.6,28.5,22.6,28.5l-5.9,61.9h-23.8L360,220.4z"/>
<path class="st1" d="M396.5,182.5c0,0-30.7,39.4-26.1,45.3s13,41.5,13,41.5s-1.2,14.3,3.6,14.3s16.7-2.4,16.7-5.9
	s-10.7-48.8-10.7-48.8l30.9-40.4L396.5,182.5z"/>
<path class="st1" d="M398.8,184.9l30.9-16.7c0,0,21.4,10.7,15.5,20.2s-33.3,34.5-33.3,34.5s8.3,40.4,7.1,41.6s-14.3,5.9-17.8,4.8
	s-22.6-47.6-17.8-50s20.2-27.4,20.2-27.4L398.8,184.9z"/>
<path class="st2" d="M314.4,621.4c0,0,21.4,13.1,23.8,13.1s34.5,8.3,20.2,14.3s-69-2.4-67.8-5.9s0-25,2.4-25
	S314.4,621.4,314.4,621.4z"/>
<path class="st2" d="M338.2,638.1c0,0,21.4,13.1,23.8,13.1s34.5,8.3,20.2,14.3s-69-2.4-67.8-5.9s0-25,2.4-25
	S338.2,638.1,338.2,638.1z"/>
<path class="st7" d="M315.6,385.9c0,0,3.6,17.8,9.5,30.9s-1.2,74.9-4.8,84.5S282.3,623.8,293,625s32.1,0,32.1,0l34.5-108.2
	l-5.9-145.1L315.6,385.9z"/>
<path class="st5" d="M315.6,385.9c0,0,3.6,17.8,9.5,30.9s-1.2,74.9-4.8,84.5S282.3,623.8,293,625s32.1,0,32.1,0l34.5-108.2
	l-5.9-145.1L315.6,385.9z"/>
<path class="st7" d="M322.7,387.1c0,0,4.8,32.1,15.5,39.3s7.1,14.3,7.1,14.3l-4.8,63c0,0-46.4,114.2-32.1,128.5s27.4,8.3,33.3,7.1
	s16.7-26.2,10.7-33.3s11.9-50,16.7-57.1s0-16.7,5.9-19s19-17.8,19-28.5s16.7-124.9,5.9-132S320.7,384,320.7,384L322.7,387.1z"/>
<circle class="st6" cx="300.1" cy="194.4" r="26.2"/>
<circle class="st3" cx="359.6" cy="99.2" r="21.4"/>
<path class="st6" d="M317.9,194.4c0,0,14.3,26.2,21.4,26.2s-28.5,27.4-28.5,27.4s-11.9-34.5-14.3-35.7S317.9,194.4,317.9,194.4z"/>
<path class="st8" d="M322.7,218.2c0,0-30.9,10.7-29.7,14.3s-8.3,11.9-8.3,15.5s-2.4,35.7,11.9,61.9s36.9,45.2,26.2,57.1
	s-27.4,32.1-9.5,32.1s46.4-26.2,72.6-16.7s20.2-26.2,20.2-26.2s3.6-27.4-3.6-35.7s-32.1-67.8-32.1-74.9s-23.8-34.5-29.7-34.5
	S322.7,218.2,322.7,218.2z"/>
<path class="st9" d="M359.6,112.3"/>
<path class="st3" d="M365.5,112.3c0,0,9.7,18.4,10.2,21.7c0.5,3.3,17.2-21.7,17.2-21.7l-19-13.1L365.5,112.3z"/>
<path class="st4" d="M369.1,126.6l20.2-21.4l23.8,10.7c0,0,22.2,48.8,23.6,52.3s-35.5,20.2-39,20.2s-28.5-36.9-28.5-36.9
	S363.1,133.7,369.1,126.6z"/>
<polygon class="st3" points="359.6,155.1 359.6,176.6 373.9,176.6 369.2,155.1 "/>
<path class="st3" d="M367.7,171.2c-3.7,0-7,2.2-8.4,5.6c-0.9,2.5-0.6,5.2,3.8,6.3c9.5,2.4,10.7,0,10.7,0s16.5-2.4,13-7.1
	s-13-4.8-13-4.8H367.7z"/>
<path class="st4" d="M419.1,274.1c0,0,14.3,13.1,10.7,14.3s-16.7,15.5-19,16.7c-2.1,1.1-25,8.3-21.4,0s11.9-13.1,11.9-13.1l2.4-14.3
	L419.1,274.1z"/>
<path class="st2" d="M290.8,174.3c1.6-1,3.6-2.2,3.6-4.1c-0.1-1.4-1-2.7-2.4-3.2c-1.3-0.5-2.7-0.6-4.1-0.6c-0.5,0-1.1,0-1.6,0.2
	c-1.4,0.4-2.1,1.8-3.2,2.7c-1.5,1.4-3.7,1.8-5.7,2.3c-3.3,0.9-6.5,2.2-9.5,3.9c-0.6,0.3-1.1,0.7-1.5,1.2c-0.5,1-0.7,2-0.6,3.1
	c-0.3,4-2.7,7.5-4.5,11.2s-3,8.1-0.9,11.6c0.8,1.1,1.6,2.2,2.4,3.3c1.5,3.1-0.4,7,0.7,10.3c0.5,1.3,1.3,2.5,2.3,3.4
	c2.1,2.1,4.7,3.7,7.5,4.5c2.7,0.8,6.1,1.4,7.1,4c0.5,1.1,0.4,2.5,1,3.5c0.8,1.3,2.4,1.7,3.9,2c1.7,0.4,3.4,0.5,5.1,0.4
	c1.7-0.1,3.3-1,4.4-2.3c0.5-0.9,1.1-1.8,1.8-2.6c1.7-1.4,4.3-0.3,6.6-0.7c1.8-0.3,3.3-1.7,3.8-3.5c0.1-0.9,0.3-1.9,0.8-2.7
	c1.4-1.8,5-0.5,5.9-2.6c0.6-1.3-0.6-2.7-1.8-3.5c-1.9-1.3-4.1-2.4-5.9-4s-3-4-2.5-6.3c0.8-3.4,5.3-5.3,5.5-8.9c0.1-2-1.4-3.8-3-5
	s-3.5-2.1-5-3.5c-1.1-1-1.9-2.3-3-3.3c-2.1-1.7-5-1.9-7.6-2.2c-1.4-0.1-7.1-0.8-6.9-3C283.4,178.2,289.3,175.1,290.8,174.3z"/>
<path class="st4" d="M369.1,125.4c0,0-13.1,4.8-13.1,10.7s-5.9,25,0,25s17.8-4.6,17.8-4.6L369.1,125.4z"/>
<path class="st6" d="M365.5,211.1c0,0,34.5-11.9,35.7-11.9s17.8-9.5,16.7-13.1l-4.8-29.7c0,0-19-39.3-5.9-39.3s20.2,30.9,20.2,30.9
	s28.5,53.5,13.1,65.4s-79.7,33.3-83.3,29.7S365.5,211.1,365.5,211.1z"/>
<path class="st3" d="M398.8,133.7l8,7.7l-10.4,10.1c0,0-14.3-5.9-13.1-2.4s8.3,14.3,13.1,14.3s29.5-15.5,29.6-20.2
	c0.1-4.8-15.4-21.4-18.9-22.6S398.8,133.7,398.8,133.7z"/>
<path class="st4" d="M383.7,125.4c0,0,17.5,15.4,19.9,15.4s6.7-23.2,6.7-23.2s-14.1-9.2-19.3-6.7S383.7,125.4,383.7,125.4z"/>
<path class="st8" d="M322.7,225.3c0,0,0-16.7,35.7-16.7h15.5l-7.1,39.3l-23.8,7.1L322.7,225.3z"/>
<path class="st2" d="M400.7,90.6c-3.5,0-7-0.2-10.5-0.6c-2.7-6.6-6.2-12.1-10-14.2c-2.7-2.4-6.8-4.1-10-5.5
	c-7.9-3.4-21.1-1.3-21.9,2.6c-15.6,7.5-11.7,20.5-11.7,20.5c2.4,5.1,7.9,2.9,12.5,0.5c1.2,3.7,4,6.9,7.9,7c7.6,0.3,11.3,3.5,9.5,7.7
	s-4,14.2,4.3,12.7s10.9,1.8,9.4,4.3c-1.5,2.5,3.7-5,3.7-5s4.6,6.9,10.3,2.1c0.6-0.6,1-1.3,1.2-2c2.6,1.1,4.7,1.6,5.9,1
	c6.8-3,2.6-10.2,2.6-10.2s9.1-1.4,6.1-1.2s-4.8-3.6,0.2-10.4S405.2,90.7,400.7,90.6z"/>
<rect x="345.9" y="87.9" transform="matrix(0.3158 -0.9488 0.9488 0.3158 155.2071 394.6749)" class="st10" width="10.7" height="3.6"/>
<path class="st4" d="M144.1,275.3c-46.3,0.2-83.9,0.9-83.9,0.9s44.8-59.3,83.8-37.3s83.8,36.6,83.8,36.6S190.3,275.1,144.1,275.3z"
	/>
<path class="st4" d="M477.1,41.3c-46.3,0.2-83.9,0.9-83.9,0.9s44.8-59.3,83.8-37.3s83.8,36.6,83.8,36.6S523.3,41.1,477.1,41.3z"/>
<path class="st4" d="M553.9,292.3c46.3,0.2,83.9,0.9,83.9,0.9s-44.8-59.3-83.8-37.3s-83.8,36.6-83.8,36.6S507.7,292.1,553.9,292.3z"
	/>
</svg>
