<?xml version="1.0" encoding="utf-8"?>
<!-- Generator: Adobe Illustrator 25.0.0, SVG Export Plug-In . SVG Version: 6.00 Build 0)  -->
<svg version="1.1" id="aaa444b1-ec30-4a51-a2af-6b879f86a07d"
	 xmlns="http://www.w3.org/2000/svg" xmlns:xlink="http://www.w3.org/1999/xlink" x="0px" y="0px" viewBox="0 0 817.4 768.8"
	 style="enable-background:new 0 0 817.4 768.8;" xml:space="preserve">
<style type="text/css">
	.st0{fill:#3F3D56;}
	.st1{fill:#A0616A;}
	.st2{fill:#2F2E41;}
	.st3{fill:#D0CDE1;}
	.st4{fill:#18AB29;}
	.st5{opacity:0.1;fill:#FFFFFF;enable-background:new    ;}
	.st6{opacity:0.1;enable-background:new    ;}
	.st7{fill:#FFFFFF;}
</style>
<ellipse class="st0" cx="401.1" cy="731.1" rx="243.5" ry="37.7"/>
<path class="st1" d="M394.6,159.6c0,0,5.9,27.3-14.3,38c0,0,4.8,60.6,35.7,61.8s30.9-32.1,30.9-32.1l-4.8-17.8c0,0-22.6-13.1-8.3-38
	L394.6,159.6z"/>
<circle class="st2" cx="420.2" cy="118.6" r="55.9"/>
<polygon class="st1" points="361.3,286.8 361.3,353.4 460,349.8 452.9,284.5 "/>
<circle class="st1" cx="420.8" cy="143" r="35.7"/>
<path class="st1" d="M376.8,197.7c0,0-20.2-3.6-27.3,0s-15.5,2.4-23.8,36.9l-15.5,71.3c0,0-2.4,21.4,15.5,19
	c17.8-2.4,16.6-33.3,16.6-33.3l11.9-27.3l21.4-23.8L376.8,197.7z"/>
<path class="st1" d="M444.5,211.9c0,0,28.5,3.6,30.9,19s-10.7,78.5-10.7,78.5l-20.2-20.2l10.7-39.2L444.5,211.9z"/>
<path class="st3" d="M371.4,197.1l0.6,22l-16.6,35.7l3.6,44l95.4,0.3l-0.3-20.5c0,0,13.1-16.6,5.9-30.9
	c-7.1-14.3-12.5-36.3-12.5-36.3l-9.5-5.9c0,0,16,37.4-17.2,31.5s-35.1-43.4-35.1-43.4L371.4,197.1z"/>
<path class="st1" d="M343.5,436.6l-16.6,93.9l-19,136.7l-8.3,15.5l7.1,15.5l20.2-9.5l8.3-36.9c0,0,28.5-34.5,23.8-78.5l51.1-122.4
	L343.5,436.6z"/>
<path class="st1" d="M425.5,446.1l11.9,116.5c0,0-2.4,32.1,4.8,60.6s11.9,78.5,11.9,78.5h23.8l-4.8-146.2l15.5-118.9L425.5,446.1z"
	/>
<path class="st2" d="M408.9,339.1c0,0-49.9-3.6-49.9,2.4v11.9c0,0-9.5,15.5-8.3,29.7s-45.2,46.4-15.5,60.6s68.9,19,74.9,14.3
	s9.5-23.8,9.5-23.8s0,21.4,10.7,22.6s74.9-11.9,74.9-22.6c0-10.7-47.6-106.4-47.6-106.4S423.1,340.3,408.9,339.1z"/>
<path class="st2" d="M305.5,683.9c0,0-4.8-8.3-9.5-2.4s-22.6,20.2-22.6,20.2s-44,11.9-14.3,29.7c0,0,26.2,0,36.9-8.3
	s21.4-4.8,21.4-4.8s16.6-1.2,17.8-8.3s-6.2-30.7-6.2-30.7S320.9,689.8,305.5,683.9z"/>
<path class="st2" d="M463.6,691c0,0-14.3-3.6-14.3,0s-20.2,25-3.6,34.5s19,7.1,20.2,16.6s32.1,16.6,36.9,10.7s8.3-16.6,2.4-21.4
	s-25-34.5-25-40.4S463.6,691,463.6,691z"/>
<ellipse class="st0" cx="434.7" cy="227.5" rx="4.2" ry="2.1"/>
<ellipse class="st4" cx="435.2" cy="231.9" rx="8.5" ry="4.4"/>
<rect x="424.8" y="234.6" class="st4" width="20.5" height="15"/>
<rect x="410.6" y="258" class="st4" width="48.6" height="73.4"/>
<path class="st4" d="M461.4,257.2c0,7.2-11.9,4.7-26.4,4.7s-26.7,2.3-26.7-4.9c0-7.2,12.3-14.8,26.7-14.8S461.4,249.9,461.4,257.2z"
	/>
<rect x="408.8" y="264.9" class="st0" width="52.5" height="5.7"/>
<rect x="409.2" y="320" class="st0" width="52.5" height="5.7"/>
<rect x="408.8" y="295.3" class="st0" width="52.5" height="11.4"/>
<path class="st4" d="M461,328.9c0,2.4,0.8,9.3-25.4,9.3c-29.6,0-27.1-7.3-27.1-9.7c0-2.4,13.1,0.9,27.1,0.9S461,326.5,461,328.9z"/>
<rect x="422.7" y="231.9" class="st0" width="24.3" height="8.2"/>
<rect x="412.9" y="275.5" class="st5" width="3.2" height="17.8"/>
<rect x="412.9" y="309.4" class="st5" width="3.2" height="6.6"/>
<path class="st1" d="M469.5,295.2c0,0-22.6-29.7-21.4-8.3s14.3,32.1,16.6,32.1S476.6,316.5,469.5,295.2z"/>
<path class="st6" d="M361.3,318c1.8,0.3,30.3-10.4,30.3-10.4l17.8-2.4l-48.1,20.1V318z"/>
<path class="st1" d="M324.5,297.5c0,0,9.5-5.9,28.5-3.6l36.9-9.5c0,0,34.5-20.2,47.6,4.8c13.1,25-48.7,16.6-48.7,16.6
	s-41.6,33.3-66.6,15.5L324.5,297.5z"/>
<circle class="st2" cx="369" cy="78.2" r="16.6"/>
<circle class="st2" cx="471.3" cy="73.4" r="16.6"/>
<path class="st2" d="M453.5,66.3c0-8.5,6.4-15.6,14.9-16.5c-9.1-1-17.4,5.6-18.4,14.7s5.6,17.4,14.7,18.4c1.2,0.1,2.4,0.1,3.6,0
	C459.9,81.9,453.5,74.8,453.5,66.3z"/>
<path class="st2" d="M350.5,91.7c-5.9-6.1-6.4-15.7-1-22.2c-0.5,0.4-0.9,0.8-1.3,1.2c-6.6,6.4-6.7,17-0.2,23.5
	c6.4,6.6,17,6.7,23.5,0.2c0.4-0.4,0.8-0.9,1.2-1.3C366,98.3,356.4,97.7,350.5,91.7z"/>
<path class="st2" d="M420.2,92.5c-19.7,0-35.7,9.3-35.7,20.8c0,5.1,3.2,9.8,8.5,13.5l6.9-5l-1.9,7.8c0.8,0.4,1.6,0.7,2.4,1l10.3-12
	v14.7c3.1,0.5,6.3,0.8,9.5,0.8c19.7,0,35.7-9.3,35.7-20.8S439.9,92.5,420.2,92.5z"/>
<path class="st4" d="M454.6,73.4c0,0-2.6,11.9,13.6,16.6"/>
<path class="st4" d="M384.5,75.6c0,0,5.9,13.3-11.9,19.2"/>
<path class="st0" d="M626.8,659.3c10.6-11.8,9.7-30.1-2.2-40.7c-2.6-2.4-5.7-4.2-9-5.5c9.8-5.7,13.1-18.2,7.5-28s-18.2-13.1-28-7.5
	s-13.1,18.2-7.5,28c1.8,3.1,4.4,5.7,7.5,7.5c-14.9,5.7-22.4,22.3-16.7,37.2c1.3,3.3,3.1,6.4,5.5,9c-18.7,11.9-24.2,36.6-12.3,55.2
	c11.9,18.7,36.6,24.2,55.2,12.3c18.7-11.9,24.2-36.6,12.3-55.2C636,666.7,631.8,662.5,626.8,659.3z"/>
<circle class="st4" cx="257.6" cy="394.9" r="29.8"/>
<ellipse transform="matrix(0.7772 -0.6292 0.6292 0.7772 -202.6398 242.9422)" class="st7" cx="241.8" cy="407.7" rx="6.8" ry="14.9"/>
<circle class="st0" cx="62.7" cy="307" r="29.8"/>
<ellipse transform="matrix(0.2603 -0.9655 0.9655 0.2603 -259.3984 264.7737)" class="st7" cx="43.1" cy="301.7" rx="14.9" ry="6.8"/>
<circle class="st0" cx="18.6" cy="131.9" r="18.6"/>
<ellipse transform="matrix(0.2603 -0.9655 0.9655 0.2603 -119.4978 101.2708)" class="st7" cx="6.3" cy="128.6" rx="9.3" ry="4.2"/>
<circle class="st0" cx="210.9" cy="591.2" r="18.6"/>
<ellipse transform="matrix(0.2603 -0.9655 0.9655 0.2603 -420.6466 626.6827)" class="st7" cx="198.7" cy="587.9" rx="9.3" ry="4.2"/>
<circle class="st0" cx="787.7" cy="373.3" r="29.8"/>
<ellipse class="st7" cx="767.3" cy="373.3" rx="6.8" ry="14.9"/>
<circle class="st4" cx="691.5" cy="182.4" r="29.8"/>
<ellipse transform="matrix(0.8099 -0.5866 0.5866 0.8099 31.8682 430.2319)" class="st7" cx="679.6" cy="166" rx="14.9" ry="6.8"/>
<circle class="st4" cx="767.3" cy="18.6" r="18.6"/>
<ellipse transform="matrix(0.8099 -0.5866 0.5866 0.8099 139.6183 447.3729)" class="st7" cx="759.9" cy="8.3" rx="9.3" ry="4.2"/>
<circle class="st0" cx="627.9" cy="496.5" r="18.6"/>
<ellipse transform="matrix(0.8099 -0.5866 0.5866 0.8099 -167.2999 456.4435)" class="st7" cx="620.4" cy="486.3" rx="9.3" ry="4.2"/>
</svg>
