<?xml version="1.0" encoding="utf-8"?>
<!-- Generator: Adobe Illustrator 25.0.0, SVG Export Plug-In . SVG Version: 6.00 Build 0)  -->
<svg version="1.1" id="b7b32b39-b294-42d6-81e0-024e7ed9ae70"
	 xmlns="http://www.w3.org/2000/svg" xmlns:xlink="http://www.w3.org/1999/xlink" x="0px" y="0px" viewBox="0 0 920.3 515.1"
	 style="enable-background:new 0 0 920.3 515.1;" xml:space="preserve">
<style type="text/css">
	.st0{fill:#45455B;}
	.st1{fill:#3F3D56;}
	.st2{fill:#FEB8B8;}
	.st3{fill:#2F2E41;}
	.st4{fill:#CCCCCC;}
	.st5{fill:#0E8A38;}
</style>
<g>
	<ellipse class="st0" cx="342.1" cy="475.2" rx="155.8" ry="39.9"/>
</g>
<path id="bca7d782-7e31-494e-97b0-f49b8df7894d" class="st1" d="M664.3,477H505.5l0-0.9l-7.6-216.9h174.1L664.3,477z M507.3,475.2
	h155.3l7.5-214.1H499.8L507.3,475.2z"/>
<g id="e7d5632f-8461-4dcf-9cd9-df8e3f64d5e2">
	<rect id="ad932c98-7027-4b28-8e73-a76d8a4136e0" x="531.3" y="299.4" class="st1" width="12.1" height="149.5"/>
	<rect id="ae1e5d8b-7977-4a56-a24c-fbb057f76b38" x="578.9" y="299.4" class="st1" width="12.1" height="149.5"/>
	<rect id="bffa0855-fc38-45cc-9e39-6daa1d3e4103" x="626.4" y="299.4" class="st1" width="12.1" height="149.5"/>
</g>
<path class="st1" d="M772.9,322.9l-0.8-0.5L574.8,197.7l17.1-27.1l0.8,0.5L790,295.8L772.9,322.9z M577.3,197.2l195,123.2l15.1-24
	l-195-123.2L577.3,197.2z"/>
<path id="b31113e7-cae2-4653-b248-af5e4acb0a6c" class="st1" d="M725.2,187.7c-16.6-10.5-38.5-5.6-48.9,11
	c-4.5,7.2-6.4,15.7-5.1,24.1l9.4,5.9c-6.1-14.2,0.4-30.7,14.6-36.8c14.2-6.1,30.7,0.4,36.8,14.6c6.1,14.2-0.4,30.7-14.6,36.8
	c-3.2,1.4-6.6,2.1-10,2.3l9.4,5.9c18.7-5.7,29.3-25.6,23.5-44.3C737.7,199.2,732.4,192.2,725.2,187.7L725.2,187.7z"/>
<g id="b91459ce-423d-4e92-a857-d0ba85dc07c7">
	<path id="bc369f15-2cd9-428d-9eec-3a8fd8cc1bba" class="st2" d="M307.3,463.2h-13.4l-6.4-51.8h19.8L307.3,463.2z"/>
	<path id="fafca8b8-1a63-4513-a3fa-e64917847011" class="st3" d="M268,475.7h42.2v-16.3h-26.1c-8.9,0-16.1,7.2-16.1,16.1l0,0l0,0
		L268,475.7z"/>
	<path id="a38ea43e-f1b1-406e-84c8-61e7480f01b4" class="st2" d="M302.6,382.9l9.3,9.7l41.9-31.1l-13.7-14.4L302.6,382.9z"/>
	<path id="b5ba90e2-8a51-4a77-95c4-5b486c8770ec" class="st3" d="M321.4,397.1l-18-18.9l-11.8,11.3l29.1,30.6l0.2-0.2
		C327.3,413.7,327.6,403.5,321.4,397.1L321.4,397.1L321.4,397.1z"/>
	<path id="b1536285-e66e-494f-8c4f-a2304265e4c3" class="st2" d="M209.1,240.9c-3.2-5.2-1.6-12,3.5-15.2c0.5-0.3,1.1-0.6,1.7-0.9
		l52.7-134.4l20.6,12.3l-58.6,129c1.9,5.8-1.3,12.1-7.1,14C217.1,247.3,211.8,245.3,209.1,240.9L209.1,240.9z"/>
	<path id="acd6249e-4699-4411-813c-091b3a750afe" class="st2" d="M409.3,250.6c-6.1-0.4-10.6-5.7-10.2-11.8c0-0.6,0.2-1.3,0.3-1.9
		l-77.8-121.6l22-9.4l70,123.2c5.8,1.9,9,8.1,7.1,13.9C419.1,247.8,414.4,251,409.3,250.6L409.3,250.6z"/>
	<path id="ece4d731-f277-435f-bbc1-e3b70679d22f" class="st3" d="M267.6,227.5l13.8,204.7l32.9-2.9l6.8-151l18.4,64.9l39.7,2.9
		l-15.7-128.2L267.6,227.5z"/>
	<path id="b91f5bf0-a8c5-41a2-a26e-8e2fd84207c6" class="st3" d="M345.3,333.4l-5.8,9.7l-40.7,28.1l29,15.5c0,0,56.1-31,51.3-40.7
		L345.3,333.4z"/>
	<path id="b0b7866d-f3ba-460a-97cc-8103175b89de" class="st4" d="M238.8,144.7l11.5-32.3c5.1-14.5,15.9-26.4,29.8-32.9l0,0
		c15.5-5.7,32.4-6.6,48.4-2.7l4.2,1c11.1,2.7,21.5,7.7,30.6,14.8c7.1,5.6,13.4,12.6,14,20.2c0,0,0,0,0,0c2,8.6,2.9,53.1,2.9,53.1
		h-17.2l2.7,60l-0.2-0.4c0,0-99.5,18.8-99.5,9.1v-62l-2-22.4L238.8,144.7z"/>
	<circle id="bd3b9138-8795-4826-98b2-48d72249760b" class="st2" cx="331.7" cy="40.9" r="27.6"/>
	<path id="e83e2647-99b5-4c80-ac3e-9e5d1f9bc81d" class="st3" d="M335.8,28.5l21.4,0.9c2.7,0,5.6-0.1,7.7-1.8
		c3.1-2.6,2.6-7.6,0.9-11.3c-4.6-10.3-14.9-14-26.2-13.7s-23.1,4.1-29.2,13.7c-6.1,9.5-7.7,21.5-5.4,32.6
		c5.4-11.4,16.5-19.2,29.1-20.3L335.8,28.5z"/>
</g>
<g>
	<path class="st1" d="M431.2,253.2l-26.7,6.3l-2.2-9.3c-1.7-7.4,2.8-14.7,10.2-16.5c7.4-1.7,14.7,2.8,16.5,10.2L431.2,253.2z
		 M405,258.7l25.5-6l-2-8.7c-1.7-7-8.7-11.4-15.7-9.7c-7,1.7-11.4,8.7-9.7,15.7L405,258.7z"/>
	<polygon class="st1" points="444.1,248.8 443.3,245.2 375.9,262.9 395.3,355.4 408.3,365.5 	"/>
	<polygon class="st5" points="455.8,244.7 382.7,263.7 408.3,365.5 477.4,341.2 	"/>
</g>
</svg>
